G04 #@! TF.GenerationSoftware,KiCad,Pcbnew,9.0.4*
G04 #@! TF.CreationDate,2025-10-21T10:02:53+08:00*
G04 #@! TF.ProjectId,M12 connecter HUD,4d313220-636f-46e6-9e65-637465722048,rev?*
G04 #@! TF.SameCoordinates,Original*
G04 #@! TF.FileFunction,Copper,L1,Top*
G04 #@! TF.FilePolarity,Positive*
%FSLAX46Y46*%
G04 Gerber Fmt 4.6, Leading zero omitted, Abs format (unit mm)*
G04 Created by KiCad (PCBNEW 9.0.4) date 2025-10-21 10:02:53*
%MOMM*%
%LPD*%
G01*
G04 APERTURE LIST*
G04 #@! TA.AperFunction,ComponentPad*
%ADD10C,2.025000*%
G04 #@! TD*
G04 #@! TA.AperFunction,ComponentPad*
%ADD11R,2.640000X2.640000*%
G04 #@! TD*
G04 #@! TA.AperFunction,ComponentPad*
%ADD12C,2.640000*%
G04 #@! TD*
G04 #@! TA.AperFunction,ComponentPad*
%ADD13R,1.700000X1.700000*%
G04 #@! TD*
G04 #@! TA.AperFunction,ComponentPad*
%ADD14C,1.700000*%
G04 #@! TD*
G04 #@! TA.AperFunction,ComponentPad*
%ADD15R,1.600000X1.600000*%
G04 #@! TD*
G04 #@! TA.AperFunction,ComponentPad*
%ADD16O,1.600000X1.600000*%
G04 #@! TD*
G04 #@! TA.AperFunction,ComponentPad*
%ADD17R,1.200000X1.200000*%
G04 #@! TD*
G04 #@! TA.AperFunction,ComponentPad*
%ADD18C,1.200000*%
G04 #@! TD*
G04 #@! TA.AperFunction,ComponentPad*
%ADD19R,1.300000X1.300000*%
G04 #@! TD*
G04 #@! TA.AperFunction,ComponentPad*
%ADD20C,1.300000*%
G04 #@! TD*
G04 #@! TA.AperFunction,Conductor*
%ADD21C,0.300000*%
G04 #@! TD*
G04 APERTURE END LIST*
D10*
X72274250Y-59942000D03*
X75814250Y-59942000D03*
X75814250Y-56402000D03*
X72274250Y-56402000D03*
X74044250Y-58172000D03*
D11*
X146790000Y-70997500D03*
D12*
X142340000Y-70997500D03*
X142340000Y-64647500D03*
X146790000Y-64647500D03*
D13*
X133960000Y-102600000D03*
D14*
X133960000Y-105140000D03*
X136500000Y-102600000D03*
X136500000Y-105140000D03*
X139040000Y-102600000D03*
X139040000Y-105140000D03*
X141580000Y-102600000D03*
X141580000Y-105140000D03*
X144120000Y-102600000D03*
X144120000Y-105140000D03*
D10*
X108045000Y-59917000D03*
X104505000Y-59917000D03*
X104505000Y-56377000D03*
X108045000Y-56377000D03*
X106275000Y-58147000D03*
D15*
X94360000Y-79530000D03*
D16*
X91820000Y-79530000D03*
X89280000Y-79530000D03*
X86740000Y-79530000D03*
X84200000Y-79530000D03*
X81660000Y-79530000D03*
X79120000Y-79530000D03*
X76580000Y-79530000D03*
X74040000Y-79530000D03*
X71500000Y-79530000D03*
X68960000Y-79530000D03*
X66420000Y-79530000D03*
X63880000Y-79530000D03*
X61340000Y-79530000D03*
X58800000Y-79530000D03*
X58800000Y-94770000D03*
X61340000Y-94770000D03*
X63880000Y-94770000D03*
X66420000Y-94770000D03*
X68960000Y-94770000D03*
X71500000Y-94770000D03*
X74040000Y-94770000D03*
X76580000Y-94770000D03*
X79120000Y-94770000D03*
X81660000Y-94770000D03*
X84200000Y-94770000D03*
X86740000Y-94770000D03*
X89280000Y-94770000D03*
X91820000Y-94770000D03*
X94360000Y-94770000D03*
D17*
X88930000Y-67865000D03*
D18*
X90930000Y-67865000D03*
D19*
X104390000Y-86330000D03*
D20*
X104390000Y-88330000D03*
X104390000Y-90330000D03*
X104390000Y-92330000D03*
D21*
X121540000Y-100140000D02*
X114090000Y-92690000D01*
X114090000Y-92690000D02*
X114090000Y-84110000D01*
X133120000Y-100140000D02*
X121540000Y-100140000D01*
X114090000Y-84110000D02*
X113030000Y-83050000D01*
X70560000Y-83050000D02*
X68960000Y-81450000D01*
X133960000Y-100980000D02*
X133120000Y-100140000D01*
X133960000Y-102600000D02*
X133960000Y-100980000D01*
X68960000Y-81450000D02*
X68960000Y-79530000D01*
X113030000Y-83050000D02*
X70560000Y-83050000D01*
X55330000Y-81400000D02*
X55330000Y-76830000D01*
X101410000Y-95660000D02*
X93410000Y-87660000D01*
X56790000Y-75370000D02*
X70510000Y-75370000D01*
X111690000Y-95660000D02*
X101410000Y-95660000D01*
X121170000Y-105140000D02*
X111690000Y-95660000D01*
X133960000Y-105140000D02*
X121170000Y-105140000D01*
X55330000Y-76830000D02*
X56790000Y-75370000D01*
X61590000Y-87660000D02*
X55330000Y-81400000D01*
X71500000Y-76360000D02*
X71500000Y-79530000D01*
X70510000Y-75370000D02*
X71500000Y-76360000D01*
X93410000Y-87660000D02*
X61590000Y-87660000D01*
X68140000Y-120990000D02*
X54700000Y-107550000D01*
X144120000Y-102600000D02*
X147560000Y-102600000D01*
X54700000Y-107550000D02*
X54700000Y-94000000D01*
X54700000Y-94000000D02*
X56520000Y-92180000D01*
X148500000Y-103540000D02*
X148500000Y-115910000D01*
X56520000Y-92180000D02*
X67630000Y-92180000D01*
X147560000Y-102600000D02*
X148500000Y-103540000D01*
X148500000Y-115910000D02*
X143420000Y-120990000D01*
X143420000Y-120990000D02*
X68140000Y-120990000D01*
X67630000Y-92180000D02*
X68960000Y-93510000D01*
X68960000Y-93510000D02*
X68960000Y-94770000D01*
X136500000Y-100280000D02*
X134850000Y-98630000D01*
X122580000Y-98630000D02*
X115830000Y-91880000D01*
X134850000Y-98630000D02*
X122580000Y-98630000D01*
X136500000Y-102600000D02*
X136500000Y-100280000D01*
X74040000Y-80950000D02*
X74040000Y-79530000D01*
X114010000Y-81670000D02*
X74760000Y-81670000D01*
X115830000Y-91880000D02*
X115830000Y-83490000D01*
X115830000Y-83490000D02*
X114010000Y-81670000D01*
X74760000Y-81670000D02*
X74040000Y-80950000D01*
X76580000Y-76910000D02*
X76580000Y-79530000D01*
X120960000Y-107450000D02*
X110670000Y-97160000D01*
X54130000Y-76270000D02*
X56750000Y-73650000D01*
X110670000Y-97160000D02*
X100904036Y-97160000D01*
X61110000Y-88820000D02*
X54130000Y-81840000D01*
X54130000Y-81840000D02*
X54130000Y-76270000D01*
X137990000Y-107450000D02*
X120960000Y-107450000D01*
X56750000Y-73650000D02*
X73320000Y-73650000D01*
X100904036Y-97160000D02*
X92564036Y-88820000D01*
X73320000Y-73650000D02*
X76580000Y-76910000D01*
X139040000Y-105140000D02*
X139040000Y-106400000D01*
X139040000Y-106400000D02*
X137990000Y-107450000D01*
X92564036Y-88820000D02*
X61110000Y-88820000D01*
X141580000Y-107070000D02*
X138910000Y-109740000D01*
X81410000Y-109740000D02*
X71500000Y-99830000D01*
X138910000Y-109740000D02*
X81410000Y-109740000D01*
X141580000Y-105140000D02*
X141580000Y-107070000D01*
X71500000Y-99830000D02*
X71500000Y-94770000D01*
X53420000Y-108520000D02*
X53420000Y-93270000D01*
X74040000Y-91920000D02*
X74040000Y-94770000D01*
X55910000Y-90780000D02*
X72900000Y-90780000D01*
X72900000Y-90780000D02*
X74040000Y-91920000D01*
X53420000Y-93270000D02*
X55910000Y-90780000D01*
X149810000Y-102580000D02*
X149810000Y-116560000D01*
X141580000Y-102600000D02*
X141580000Y-100720000D01*
X143980000Y-122390000D02*
X67290000Y-122390000D01*
X141580000Y-100720000D02*
X142760000Y-99540000D01*
X149810000Y-116560000D02*
X143980000Y-122390000D01*
X67290000Y-122390000D02*
X53420000Y-108520000D01*
X142760000Y-99540000D02*
X146770000Y-99540000D01*
X146770000Y-99540000D02*
X149810000Y-102580000D01*
G04 #@! TA.AperFunction,Conductor*
G36*
X67376231Y-92850185D02*
G01*
X67396873Y-92866819D01*
X68123267Y-93593213D01*
X68156752Y-93654536D01*
X68151768Y-93724228D01*
X68116121Y-93775182D01*
X68112775Y-93778039D01*
X67968028Y-93922786D01*
X67847715Y-94088386D01*
X67800485Y-94181080D01*
X67752510Y-94231876D01*
X67684689Y-94248671D01*
X67618554Y-94226134D01*
X67579515Y-94181080D01*
X67532419Y-94088650D01*
X67532287Y-94088390D01*
X67524556Y-94077749D01*
X67411971Y-93922786D01*
X67267213Y-93778028D01*
X67101613Y-93657715D01*
X67101612Y-93657714D01*
X67101610Y-93657713D01*
X67021542Y-93616916D01*
X66919223Y-93564781D01*
X66724534Y-93501522D01*
X66549995Y-93473878D01*
X66522352Y-93469500D01*
X66317648Y-93469500D01*
X66293329Y-93473351D01*
X66115465Y-93501522D01*
X65920776Y-93564781D01*
X65738386Y-93657715D01*
X65572786Y-93778028D01*
X65428028Y-93922786D01*
X65307715Y-94088386D01*
X65260485Y-94181080D01*
X65212510Y-94231876D01*
X65144689Y-94248671D01*
X65078554Y-94226134D01*
X65039515Y-94181080D01*
X64992419Y-94088650D01*
X64992287Y-94088390D01*
X64984556Y-94077749D01*
X64871971Y-93922786D01*
X64727213Y-93778028D01*
X64561613Y-93657715D01*
X64561612Y-93657714D01*
X64561610Y-93657713D01*
X64481542Y-93616916D01*
X64379223Y-93564781D01*
X64184534Y-93501522D01*
X64009995Y-93473878D01*
X63982352Y-93469500D01*
X63777648Y-93469500D01*
X63753329Y-93473351D01*
X63575465Y-93501522D01*
X63380776Y-93564781D01*
X63198386Y-93657715D01*
X63032786Y-93778028D01*
X62888028Y-93922786D01*
X62767715Y-94088386D01*
X62720485Y-94181080D01*
X62672510Y-94231876D01*
X62604689Y-94248671D01*
X62538554Y-94226134D01*
X62499515Y-94181080D01*
X62452419Y-94088650D01*
X62452287Y-94088390D01*
X62444556Y-94077749D01*
X62331971Y-93922786D01*
X62187213Y-93778028D01*
X62021613Y-93657715D01*
X62021612Y-93657714D01*
X62021610Y-93657713D01*
X61941542Y-93616916D01*
X61839223Y-93564781D01*
X61644534Y-93501522D01*
X61469995Y-93473878D01*
X61442352Y-93469500D01*
X61237648Y-93469500D01*
X61213329Y-93473351D01*
X61035465Y-93501522D01*
X60840776Y-93564781D01*
X60658386Y-93657715D01*
X60492786Y-93778028D01*
X60348028Y-93922786D01*
X60227715Y-94088386D01*
X60180485Y-94181080D01*
X60132510Y-94231876D01*
X60064689Y-94248671D01*
X59998554Y-94226134D01*
X59959515Y-94181080D01*
X59912419Y-94088650D01*
X59912287Y-94088390D01*
X59904556Y-94077749D01*
X59791971Y-93922786D01*
X59647213Y-93778028D01*
X59481613Y-93657715D01*
X59481612Y-93657714D01*
X59481610Y-93657713D01*
X59401542Y-93616916D01*
X59299223Y-93564781D01*
X59104534Y-93501522D01*
X58929995Y-93473878D01*
X58902352Y-93469500D01*
X58697648Y-93469500D01*
X58673329Y-93473351D01*
X58495465Y-93501522D01*
X58300776Y-93564781D01*
X58118386Y-93657715D01*
X57952786Y-93778028D01*
X57808028Y-93922786D01*
X57687715Y-94088386D01*
X57594781Y-94270776D01*
X57531522Y-94465465D01*
X57499500Y-94667648D01*
X57499500Y-94872351D01*
X57531522Y-95074534D01*
X57594781Y-95269223D01*
X57658691Y-95394653D01*
X57671606Y-95419999D01*
X57687715Y-95451613D01*
X57808028Y-95617213D01*
X57952786Y-95761971D01*
X58098383Y-95867751D01*
X58118390Y-95882287D01*
X58198453Y-95923081D01*
X58300776Y-95975218D01*
X58300778Y-95975218D01*
X58300781Y-95975220D01*
X58405137Y-96009127D01*
X58495465Y-96038477D01*
X58596557Y-96054488D01*
X58697648Y-96070500D01*
X58697649Y-96070500D01*
X58902351Y-96070500D01*
X58902352Y-96070500D01*
X59104534Y-96038477D01*
X59299219Y-95975220D01*
X59481610Y-95882287D01*
X59574590Y-95814732D01*
X59647213Y-95761971D01*
X59647215Y-95761968D01*
X59647219Y-95761966D01*
X59791966Y-95617219D01*
X59791968Y-95617215D01*
X59791971Y-95617213D01*
X59912284Y-95451614D01*
X59912286Y-95451611D01*
X59912287Y-95451610D01*
X59959516Y-95358917D01*
X60007489Y-95308123D01*
X60075310Y-95291328D01*
X60141445Y-95313865D01*
X60180483Y-95358917D01*
X60211607Y-95420000D01*
X60227715Y-95451614D01*
X60348028Y-95617213D01*
X60492786Y-95761971D01*
X60638383Y-95867751D01*
X60658390Y-95882287D01*
X60738453Y-95923081D01*
X60840776Y-95975218D01*
X60840778Y-95975218D01*
X60840781Y-95975220D01*
X60945137Y-96009127D01*
X61035465Y-96038477D01*
X61136557Y-96054488D01*
X61237648Y-96070500D01*
X61237649Y-96070500D01*
X61442351Y-96070500D01*
X61442352Y-96070500D01*
X61644534Y-96038477D01*
X61839219Y-95975220D01*
X62021610Y-95882287D01*
X62114590Y-95814732D01*
X62187213Y-95761971D01*
X62187215Y-95761968D01*
X62187219Y-95761966D01*
X62331966Y-95617219D01*
X62331968Y-95617215D01*
X62331971Y-95617213D01*
X62452284Y-95451614D01*
X62452286Y-95451611D01*
X62452287Y-95451610D01*
X62499516Y-95358917D01*
X62547489Y-95308123D01*
X62615310Y-95291328D01*
X62681445Y-95313865D01*
X62720483Y-95358917D01*
X62751607Y-95420000D01*
X62767715Y-95451614D01*
X62888028Y-95617213D01*
X63032786Y-95761971D01*
X63178383Y-95867751D01*
X63198390Y-95882287D01*
X63278453Y-95923081D01*
X63380776Y-95975218D01*
X63380778Y-95975218D01*
X63380781Y-95975220D01*
X63485137Y-96009127D01*
X63575465Y-96038477D01*
X63676557Y-96054488D01*
X63777648Y-96070500D01*
X63777649Y-96070500D01*
X63982351Y-96070500D01*
X63982352Y-96070500D01*
X64184534Y-96038477D01*
X64379219Y-95975220D01*
X64561610Y-95882287D01*
X64654590Y-95814732D01*
X64727213Y-95761971D01*
X64727215Y-95761968D01*
X64727219Y-95761966D01*
X64871966Y-95617219D01*
X64871968Y-95617215D01*
X64871971Y-95617213D01*
X64992284Y-95451614D01*
X64992286Y-95451611D01*
X64992287Y-95451610D01*
X65039516Y-95358917D01*
X65087489Y-95308123D01*
X65155310Y-95291328D01*
X65221445Y-95313865D01*
X65260483Y-95358917D01*
X65291607Y-95420000D01*
X65307715Y-95451614D01*
X65428028Y-95617213D01*
X65572786Y-95761971D01*
X65718383Y-95867751D01*
X65738390Y-95882287D01*
X65818453Y-95923081D01*
X65920776Y-95975218D01*
X65920778Y-95975218D01*
X65920781Y-95975220D01*
X66025137Y-96009127D01*
X66115465Y-96038477D01*
X66216557Y-96054488D01*
X66317648Y-96070500D01*
X66317649Y-96070500D01*
X66522351Y-96070500D01*
X66522352Y-96070500D01*
X66724534Y-96038477D01*
X66919219Y-95975220D01*
X67101610Y-95882287D01*
X67194590Y-95814732D01*
X67267213Y-95761971D01*
X67267215Y-95761968D01*
X67267219Y-95761966D01*
X67411966Y-95617219D01*
X67411968Y-95617215D01*
X67411971Y-95617213D01*
X67532284Y-95451614D01*
X67532286Y-95451611D01*
X67532287Y-95451610D01*
X67579516Y-95358917D01*
X67627489Y-95308123D01*
X67695310Y-95291328D01*
X67761445Y-95313865D01*
X67800483Y-95358917D01*
X67831607Y-95420000D01*
X67847715Y-95451614D01*
X67968028Y-95617213D01*
X68112786Y-95761971D01*
X68258383Y-95867751D01*
X68278390Y-95882287D01*
X68358453Y-95923081D01*
X68460776Y-95975218D01*
X68460778Y-95975218D01*
X68460781Y-95975220D01*
X68565137Y-96009127D01*
X68655465Y-96038477D01*
X68756557Y-96054488D01*
X68857648Y-96070500D01*
X68857649Y-96070500D01*
X69062351Y-96070500D01*
X69062352Y-96070500D01*
X69264534Y-96038477D01*
X69459219Y-95975220D01*
X69641610Y-95882287D01*
X69734590Y-95814732D01*
X69807213Y-95761971D01*
X69807215Y-95761968D01*
X69807219Y-95761966D01*
X69951966Y-95617219D01*
X69951968Y-95617215D01*
X69951971Y-95617213D01*
X70072284Y-95451614D01*
X70072286Y-95451611D01*
X70072287Y-95451610D01*
X70119516Y-95358917D01*
X70167489Y-95308123D01*
X70235310Y-95291328D01*
X70301445Y-95313865D01*
X70340483Y-95358917D01*
X70371607Y-95420000D01*
X70387715Y-95451614D01*
X70508028Y-95617213D01*
X70652784Y-95761969D01*
X70721863Y-95812157D01*
X70798385Y-95867753D01*
X70841051Y-95923081D01*
X70849500Y-95968070D01*
X70849500Y-99894069D01*
X70864977Y-99971873D01*
X70874499Y-100019744D01*
X70923535Y-100138127D01*
X70994723Y-100244669D01*
X70994726Y-100244673D01*
X80995324Y-110245271D01*
X80995331Y-110245277D01*
X81101871Y-110316464D01*
X81101870Y-110316464D01*
X81136544Y-110330826D01*
X81220256Y-110365501D01*
X81220260Y-110365501D01*
X81220261Y-110365502D01*
X81345928Y-110390500D01*
X81345931Y-110390500D01*
X138974071Y-110390500D01*
X139058615Y-110373682D01*
X139099744Y-110365501D01*
X139218127Y-110316465D01*
X139324669Y-110245277D01*
X142085276Y-107484669D01*
X142156465Y-107378127D01*
X142205501Y-107259744D01*
X142228947Y-107141874D01*
X142230500Y-107134069D01*
X142230500Y-106399617D01*
X142250185Y-106332578D01*
X142284592Y-106298902D01*
X142283874Y-106297914D01*
X142287811Y-106295053D01*
X142287816Y-106295051D01*
X142459792Y-106170104D01*
X142610104Y-106019792D01*
X142610106Y-106019788D01*
X142610109Y-106019786D01*
X142695890Y-105901717D01*
X142735051Y-105847816D01*
X142739793Y-105838508D01*
X142787763Y-105787711D01*
X142855583Y-105770911D01*
X142921719Y-105793445D01*
X142960763Y-105838500D01*
X142965373Y-105847547D01*
X143004728Y-105901716D01*
X143637037Y-105269408D01*
X143654075Y-105332993D01*
X143719901Y-105447007D01*
X143812993Y-105540099D01*
X143927007Y-105605925D01*
X143990590Y-105622962D01*
X143358282Y-106255269D01*
X143358282Y-106255270D01*
X143412449Y-106294624D01*
X143601782Y-106391095D01*
X143803870Y-106456757D01*
X144013754Y-106490000D01*
X144226246Y-106490000D01*
X144436127Y-106456757D01*
X144436130Y-106456757D01*
X144638217Y-106391095D01*
X144827554Y-106294622D01*
X144881716Y-106255270D01*
X144881717Y-106255270D01*
X144249408Y-105622962D01*
X144312993Y-105605925D01*
X144427007Y-105540099D01*
X144520099Y-105447007D01*
X144585925Y-105332993D01*
X144602962Y-105269409D01*
X145235270Y-105901717D01*
X145235270Y-105901716D01*
X145274622Y-105847554D01*
X145371095Y-105658217D01*
X145436757Y-105456130D01*
X145436757Y-105456127D01*
X145470000Y-105246246D01*
X145470000Y-105033753D01*
X145436757Y-104823872D01*
X145436757Y-104823869D01*
X145371095Y-104621782D01*
X145274624Y-104432449D01*
X145235270Y-104378282D01*
X145235269Y-104378282D01*
X144602962Y-105010590D01*
X144585925Y-104947007D01*
X144520099Y-104832993D01*
X144427007Y-104739901D01*
X144312993Y-104674075D01*
X144249409Y-104657037D01*
X144881716Y-104024728D01*
X144827547Y-103985373D01*
X144827547Y-103985372D01*
X144818500Y-103980763D01*
X144767706Y-103932788D01*
X144750912Y-103864966D01*
X144773451Y-103798832D01*
X144818508Y-103759793D01*
X144827816Y-103755051D01*
X144914147Y-103692328D01*
X144999786Y-103630109D01*
X144999788Y-103630106D01*
X144999792Y-103630104D01*
X145150104Y-103479792D01*
X145150106Y-103479788D01*
X145150109Y-103479786D01*
X145277915Y-103303875D01*
X145279259Y-103304851D01*
X145325705Y-103262834D01*
X145379618Y-103250500D01*
X147239192Y-103250500D01*
X147306231Y-103270185D01*
X147326873Y-103286819D01*
X147813181Y-103773127D01*
X147846666Y-103834450D01*
X147849500Y-103860808D01*
X147849500Y-115589192D01*
X147829815Y-115656231D01*
X147813181Y-115676873D01*
X143186873Y-120303181D01*
X143125550Y-120336666D01*
X143099192Y-120339500D01*
X68460808Y-120339500D01*
X68393769Y-120319815D01*
X68373127Y-120303181D01*
X63424946Y-115355000D01*
X122979999Y-115355000D01*
X123104999Y-116429999D01*
X123604998Y-117654998D01*
X123604999Y-117654999D01*
X123605000Y-117655000D01*
X124605000Y-118680000D01*
X125905000Y-119155000D01*
X126680000Y-119265275D01*
X127130000Y-119230000D01*
X128580000Y-118780000D01*
X129530000Y-117905000D01*
X130005000Y-117130000D01*
X130137539Y-116697738D01*
X130365274Y-115955004D01*
X130365274Y-115955002D01*
X130365275Y-115955000D01*
X130380000Y-115230000D01*
X129980000Y-113980000D01*
X129405676Y-113130000D01*
X129355000Y-113054999D01*
X129354998Y-113054998D01*
X128380003Y-112280002D01*
X128380001Y-112280001D01*
X128380000Y-112280000D01*
X127230000Y-111894725D01*
X127229999Y-111894724D01*
X127229997Y-111894724D01*
X126080003Y-111854999D01*
X126080000Y-111855000D01*
X125506252Y-112079999D01*
X124805002Y-112354999D01*
X124804998Y-112355001D01*
X123855000Y-113129998D01*
X123855000Y-113129999D01*
X123204999Y-114330001D01*
X122980000Y-115354998D01*
X122979999Y-115355000D01*
X63424946Y-115355000D01*
X55386819Y-107316873D01*
X55353334Y-107255550D01*
X55350500Y-107229192D01*
X55350500Y-94320808D01*
X55370185Y-94253769D01*
X55386819Y-94233127D01*
X56753127Y-92866819D01*
X56814450Y-92833334D01*
X56840808Y-92830500D01*
X67309192Y-92830500D01*
X67376231Y-92850185D01*
G37*
G04 #@! TD.AperFunction*
G04 #@! TA.AperFunction,Conductor*
G36*
X142921444Y-103253999D02*
G01*
X142960486Y-103299056D01*
X142964951Y-103307820D01*
X143089890Y-103479786D01*
X143240213Y-103630109D01*
X143412179Y-103755048D01*
X143412181Y-103755049D01*
X143412184Y-103755051D01*
X143421493Y-103759794D01*
X143472290Y-103807766D01*
X143489087Y-103875587D01*
X143466552Y-103941722D01*
X143421505Y-103980760D01*
X143412446Y-103985376D01*
X143412440Y-103985380D01*
X143358282Y-104024727D01*
X143358282Y-104024728D01*
X143990591Y-104657037D01*
X143927007Y-104674075D01*
X143812993Y-104739901D01*
X143719901Y-104832993D01*
X143654075Y-104947007D01*
X143637037Y-105010591D01*
X143004728Y-104378282D01*
X143004727Y-104378282D01*
X142965380Y-104432440D01*
X142965376Y-104432446D01*
X142960760Y-104441505D01*
X142912781Y-104492297D01*
X142844959Y-104509087D01*
X142778826Y-104486543D01*
X142739794Y-104441493D01*
X142735051Y-104432184D01*
X142735049Y-104432181D01*
X142735048Y-104432179D01*
X142610109Y-104260213D01*
X142459786Y-104109890D01*
X142287820Y-103984951D01*
X142279600Y-103980763D01*
X142279054Y-103980485D01*
X142228259Y-103932512D01*
X142211463Y-103864692D01*
X142233999Y-103798556D01*
X142279054Y-103759515D01*
X142287816Y-103755051D01*
X142374138Y-103692335D01*
X142459786Y-103630109D01*
X142459788Y-103630106D01*
X142459792Y-103630104D01*
X142610104Y-103479792D01*
X142610106Y-103479788D01*
X142610109Y-103479786D01*
X142735048Y-103307820D01*
X142735047Y-103307820D01*
X142735051Y-103307816D01*
X142739514Y-103299054D01*
X142787488Y-103248259D01*
X142855308Y-103231463D01*
X142921444Y-103253999D01*
G37*
G04 #@! TD.AperFunction*
G04 #@! TA.AperFunction,Conductor*
G36*
X70256231Y-76040185D02*
G01*
X70276873Y-76056819D01*
X70813181Y-76593127D01*
X70846666Y-76654450D01*
X70849500Y-76680808D01*
X70849500Y-78331928D01*
X70829815Y-78398967D01*
X70798385Y-78432246D01*
X70652787Y-78538028D01*
X70652782Y-78538032D01*
X70508028Y-78682786D01*
X70387715Y-78848386D01*
X70340485Y-78941080D01*
X70292510Y-78991876D01*
X70224689Y-79008671D01*
X70158554Y-78986134D01*
X70119515Y-78941080D01*
X70072419Y-78848650D01*
X70072287Y-78848390D01*
X70010858Y-78763839D01*
X69951971Y-78682786D01*
X69807213Y-78538028D01*
X69641613Y-78417715D01*
X69641612Y-78417714D01*
X69641610Y-78417713D01*
X69561542Y-78376916D01*
X69459223Y-78324781D01*
X69264534Y-78261522D01*
X69089995Y-78233878D01*
X69062352Y-78229500D01*
X68857648Y-78229500D01*
X68833329Y-78233351D01*
X68655465Y-78261522D01*
X68460776Y-78324781D01*
X68278386Y-78417715D01*
X68112786Y-78538028D01*
X67968028Y-78682786D01*
X67847715Y-78848386D01*
X67800485Y-78941080D01*
X67752510Y-78991876D01*
X67684689Y-79008671D01*
X67618554Y-78986134D01*
X67579515Y-78941080D01*
X67532419Y-78848650D01*
X67532287Y-78848390D01*
X67470858Y-78763839D01*
X67411971Y-78682786D01*
X67267213Y-78538028D01*
X67101613Y-78417715D01*
X67101612Y-78417714D01*
X67101610Y-78417713D01*
X67021542Y-78376916D01*
X66919223Y-78324781D01*
X66724534Y-78261522D01*
X66549995Y-78233878D01*
X66522352Y-78229500D01*
X66317648Y-78229500D01*
X66293329Y-78233351D01*
X66115465Y-78261522D01*
X65920776Y-78324781D01*
X65738386Y-78417715D01*
X65572786Y-78538028D01*
X65428028Y-78682786D01*
X65307715Y-78848386D01*
X65260485Y-78941080D01*
X65212510Y-78991876D01*
X65144689Y-79008671D01*
X65078554Y-78986134D01*
X65039515Y-78941080D01*
X64992419Y-78848650D01*
X64992287Y-78848390D01*
X64930858Y-78763839D01*
X64871971Y-78682786D01*
X64727213Y-78538028D01*
X64561613Y-78417715D01*
X64561612Y-78417714D01*
X64561610Y-78417713D01*
X64481542Y-78376916D01*
X64379223Y-78324781D01*
X64184534Y-78261522D01*
X64009995Y-78233878D01*
X63982352Y-78229500D01*
X63777648Y-78229500D01*
X63753329Y-78233351D01*
X63575465Y-78261522D01*
X63380776Y-78324781D01*
X63198386Y-78417715D01*
X63032786Y-78538028D01*
X62888028Y-78682786D01*
X62767715Y-78848386D01*
X62720485Y-78941080D01*
X62672510Y-78991876D01*
X62604689Y-79008671D01*
X62538554Y-78986134D01*
X62499515Y-78941080D01*
X62452419Y-78848650D01*
X62452287Y-78848390D01*
X62390858Y-78763839D01*
X62331971Y-78682786D01*
X62187213Y-78538028D01*
X62021613Y-78417715D01*
X62021612Y-78417714D01*
X62021610Y-78417713D01*
X61941542Y-78376916D01*
X61839223Y-78324781D01*
X61644534Y-78261522D01*
X61469995Y-78233878D01*
X61442352Y-78229500D01*
X61237648Y-78229500D01*
X61213329Y-78233351D01*
X61035465Y-78261522D01*
X60840776Y-78324781D01*
X60658386Y-78417715D01*
X60492786Y-78538028D01*
X60348028Y-78682786D01*
X60227715Y-78848386D01*
X60180485Y-78941080D01*
X60132510Y-78991876D01*
X60064689Y-79008671D01*
X59998554Y-78986134D01*
X59959515Y-78941080D01*
X59912419Y-78848650D01*
X59912287Y-78848390D01*
X59850858Y-78763839D01*
X59791971Y-78682786D01*
X59647213Y-78538028D01*
X59481613Y-78417715D01*
X59481612Y-78417714D01*
X59481610Y-78417713D01*
X59401542Y-78376916D01*
X59299223Y-78324781D01*
X59104534Y-78261522D01*
X58929995Y-78233878D01*
X58902352Y-78229500D01*
X58697648Y-78229500D01*
X58673329Y-78233351D01*
X58495465Y-78261522D01*
X58300776Y-78324781D01*
X58118386Y-78417715D01*
X57952786Y-78538028D01*
X57808028Y-78682786D01*
X57687715Y-78848386D01*
X57594781Y-79030776D01*
X57531522Y-79225465D01*
X57499500Y-79427648D01*
X57499500Y-79632351D01*
X57531522Y-79834534D01*
X57594781Y-80029223D01*
X57687715Y-80211613D01*
X57808028Y-80377213D01*
X57952786Y-80521971D01*
X58098383Y-80627751D01*
X58118390Y-80642287D01*
X58198453Y-80683081D01*
X58300776Y-80735218D01*
X58300778Y-80735218D01*
X58300781Y-80735220D01*
X58405137Y-80769127D01*
X58495465Y-80798477D01*
X58595348Y-80814297D01*
X58697648Y-80830500D01*
X58697649Y-80830500D01*
X58902351Y-80830500D01*
X58902352Y-80830500D01*
X59104534Y-80798477D01*
X59299219Y-80735220D01*
X59481610Y-80642287D01*
X59577901Y-80572328D01*
X59647213Y-80521971D01*
X59647215Y-80521968D01*
X59647219Y-80521966D01*
X59791966Y-80377219D01*
X59791968Y-80377215D01*
X59791971Y-80377213D01*
X59912284Y-80211614D01*
X59912286Y-80211611D01*
X59912287Y-80211610D01*
X59959516Y-80118917D01*
X60007489Y-80068123D01*
X60075310Y-80051328D01*
X60141445Y-80073865D01*
X60180485Y-80118919D01*
X60227715Y-80211614D01*
X60348028Y-80377213D01*
X60492786Y-80521971D01*
X60638383Y-80627751D01*
X60658390Y-80642287D01*
X60738453Y-80683081D01*
X60840776Y-80735218D01*
X60840778Y-80735218D01*
X60840781Y-80735220D01*
X60945137Y-80769127D01*
X61035465Y-80798477D01*
X61135348Y-80814297D01*
X61237648Y-80830500D01*
X61237649Y-80830500D01*
X61442351Y-80830500D01*
X61442352Y-80830500D01*
X61644534Y-80798477D01*
X61839219Y-80735220D01*
X62021610Y-80642287D01*
X62117901Y-80572328D01*
X62187213Y-80521971D01*
X62187215Y-80521968D01*
X62187219Y-80521966D01*
X62331966Y-80377219D01*
X62331968Y-80377215D01*
X62331971Y-80377213D01*
X62452284Y-80211614D01*
X62452286Y-80211611D01*
X62452287Y-80211610D01*
X62499516Y-80118917D01*
X62547489Y-80068123D01*
X62615310Y-80051328D01*
X62681445Y-80073865D01*
X62720485Y-80118919D01*
X62767715Y-80211614D01*
X62888028Y-80377213D01*
X63032786Y-80521971D01*
X63178383Y-80627751D01*
X63198390Y-80642287D01*
X63278453Y-80683081D01*
X63380776Y-80735218D01*
X63380778Y-80735218D01*
X63380781Y-80735220D01*
X63485137Y-80769127D01*
X63575465Y-80798477D01*
X63675348Y-80814297D01*
X63777648Y-80830500D01*
X63777649Y-80830500D01*
X63982351Y-80830500D01*
X63982352Y-80830500D01*
X64184534Y-80798477D01*
X64379219Y-80735220D01*
X64561610Y-80642287D01*
X64657901Y-80572328D01*
X64727213Y-80521971D01*
X64727215Y-80521968D01*
X64727219Y-80521966D01*
X64871966Y-80377219D01*
X64871968Y-80377215D01*
X64871971Y-80377213D01*
X64992284Y-80211614D01*
X64992286Y-80211611D01*
X64992287Y-80211610D01*
X65039516Y-80118917D01*
X65087489Y-80068123D01*
X65155310Y-80051328D01*
X65221445Y-80073865D01*
X65260485Y-80118919D01*
X65307715Y-80211614D01*
X65428028Y-80377213D01*
X65572786Y-80521971D01*
X65718383Y-80627751D01*
X65738390Y-80642287D01*
X65818453Y-80683081D01*
X65920776Y-80735218D01*
X65920778Y-80735218D01*
X65920781Y-80735220D01*
X66025137Y-80769127D01*
X66115465Y-80798477D01*
X66215348Y-80814297D01*
X66317648Y-80830500D01*
X66317649Y-80830500D01*
X66522351Y-80830500D01*
X66522352Y-80830500D01*
X66724534Y-80798477D01*
X66919219Y-80735220D01*
X67101610Y-80642287D01*
X67197901Y-80572328D01*
X67267213Y-80521971D01*
X67267215Y-80521968D01*
X67267219Y-80521966D01*
X67411966Y-80377219D01*
X67411968Y-80377215D01*
X67411971Y-80377213D01*
X67532284Y-80211614D01*
X67532286Y-80211611D01*
X67532287Y-80211610D01*
X67579516Y-80118917D01*
X67627489Y-80068123D01*
X67695310Y-80051328D01*
X67761445Y-80073865D01*
X67800485Y-80118919D01*
X67847715Y-80211614D01*
X67968028Y-80377213D01*
X68112784Y-80521969D01*
X68181863Y-80572157D01*
X68258385Y-80627753D01*
X68301051Y-80683081D01*
X68309500Y-80728070D01*
X68309500Y-81514069D01*
X68326693Y-81600500D01*
X68334499Y-81639744D01*
X68383534Y-81758125D01*
X68454726Y-81864673D01*
X70145328Y-83555275D01*
X70145331Y-83555277D01*
X70219335Y-83604724D01*
X70251873Y-83626465D01*
X70370256Y-83675501D01*
X70370260Y-83675501D01*
X70370261Y-83675502D01*
X70495928Y-83700500D01*
X70495931Y-83700500D01*
X112709192Y-83700500D01*
X112776231Y-83720185D01*
X112796873Y-83736819D01*
X113403181Y-84343127D01*
X113436666Y-84404450D01*
X113439500Y-84430808D01*
X113439500Y-92754071D01*
X113455267Y-92833334D01*
X113457630Y-92845212D01*
X113464499Y-92879744D01*
X113513535Y-92998127D01*
X113578484Y-93095331D01*
X113584726Y-93104673D01*
X121125326Y-100645273D01*
X121125329Y-100645275D01*
X121125331Y-100645277D01*
X121231873Y-100716465D01*
X121350256Y-100765501D01*
X121350260Y-100765501D01*
X121350261Y-100765502D01*
X121475928Y-100790500D01*
X121475931Y-100790500D01*
X132799192Y-100790500D01*
X132866231Y-100810185D01*
X132886873Y-100826819D01*
X133102269Y-101042215D01*
X133135754Y-101103538D01*
X133130770Y-101173230D01*
X133088898Y-101229163D01*
X133027844Y-101253185D01*
X133002519Y-101255907D01*
X132867671Y-101306202D01*
X132867664Y-101306206D01*
X132752455Y-101392452D01*
X132752452Y-101392455D01*
X132666206Y-101507664D01*
X132666202Y-101507671D01*
X132615908Y-101642517D01*
X132609501Y-101702116D01*
X132609500Y-101702135D01*
X132609500Y-103497870D01*
X132609501Y-103497876D01*
X132615908Y-103557483D01*
X132666202Y-103692328D01*
X132666206Y-103692335D01*
X132752452Y-103807544D01*
X132752455Y-103807547D01*
X132867664Y-103893793D01*
X132867671Y-103893797D01*
X132999082Y-103942810D01*
X133055016Y-103984681D01*
X133079433Y-104050145D01*
X133064582Y-104118418D01*
X133043431Y-104146673D01*
X132929889Y-104260215D01*
X132802085Y-104436125D01*
X132800740Y-104435148D01*
X132754295Y-104477166D01*
X132700382Y-104489500D01*
X121490808Y-104489500D01*
X121423769Y-104469815D01*
X121403127Y-104453181D01*
X112104674Y-95154727D01*
X112104673Y-95154726D01*
X112104669Y-95154723D01*
X111998127Y-95083535D01*
X111879744Y-95034499D01*
X111879738Y-95034497D01*
X111754071Y-95009500D01*
X111754069Y-95009500D01*
X101730808Y-95009500D01*
X101663769Y-94989815D01*
X101643127Y-94973181D01*
X96992210Y-90322263D01*
X93824673Y-87154726D01*
X93824669Y-87154723D01*
X93718127Y-87083535D01*
X93599744Y-87034499D01*
X93599738Y-87034497D01*
X93474071Y-87009500D01*
X93474069Y-87009500D01*
X61910808Y-87009500D01*
X61843769Y-86989815D01*
X61823127Y-86973181D01*
X60482081Y-85632135D01*
X103239500Y-85632135D01*
X103239500Y-87027870D01*
X103239501Y-87027876D01*
X103245908Y-87087483D01*
X103296202Y-87222328D01*
X103296206Y-87222335D01*
X103382452Y-87337544D01*
X103382455Y-87337547D01*
X103497664Y-87423793D01*
X103497671Y-87423797D01*
X103542618Y-87440561D01*
X103632517Y-87474091D01*
X103692127Y-87480500D01*
X103842693Y-87480499D01*
X103909730Y-87500183D01*
X103930372Y-87516818D01*
X104321834Y-87908280D01*
X104225959Y-87933970D01*
X104129048Y-87989921D01*
X104049921Y-88069048D01*
X103993970Y-88165959D01*
X103968280Y-88261833D01*
X103417912Y-87711466D01*
X103406432Y-87727269D01*
X103324254Y-87888547D01*
X103324251Y-87888555D01*
X103268317Y-88060706D01*
X103240000Y-88239493D01*
X103240000Y-88420506D01*
X103268317Y-88599293D01*
X103324251Y-88771444D01*
X103324252Y-88771447D01*
X103406431Y-88932730D01*
X103417913Y-88948532D01*
X103417913Y-88948533D01*
X103968280Y-88398165D01*
X103993970Y-88494041D01*
X104049921Y-88590952D01*
X104129048Y-88670079D01*
X104225959Y-88726030D01*
X104321833Y-88751719D01*
X103765249Y-89308302D01*
X103755763Y-89353457D01*
X103719395Y-89395125D01*
X103640505Y-89452441D01*
X103640500Y-89452445D01*
X103512445Y-89580500D01*
X103512441Y-89580505D01*
X103406006Y-89727002D01*
X103323788Y-89888360D01*
X103323787Y-89888363D01*
X103267829Y-90060589D01*
X103239500Y-90239448D01*
X103239500Y-90420551D01*
X103267829Y-90599410D01*
X103323787Y-90771636D01*
X103323788Y-90771639D01*
X103406006Y-90932997D01*
X103512441Y-91079494D01*
X103512445Y-91079499D01*
X103640500Y-91207554D01*
X103670956Y-91229682D01*
X103713621Y-91285013D01*
X103719600Y-91354626D01*
X103686994Y-91416421D01*
X103670956Y-91430318D01*
X103640500Y-91452445D01*
X103512445Y-91580500D01*
X103512441Y-91580505D01*
X103406006Y-91727002D01*
X103323788Y-91888360D01*
X103323787Y-91888363D01*
X103267830Y-92060587D01*
X103267829Y-92060587D01*
X103239500Y-92239448D01*
X103239500Y-92420551D01*
X103267829Y-92599410D01*
X103323787Y-92771636D01*
X103323788Y-92771639D01*
X103406006Y-92932997D01*
X103512441Y-93079494D01*
X103512445Y-93079499D01*
X103640500Y-93207554D01*
X103640505Y-93207558D01*
X103768287Y-93300396D01*
X103787006Y-93313996D01*
X103892484Y-93367740D01*
X103948360Y-93396211D01*
X103948363Y-93396212D01*
X104034476Y-93424191D01*
X104120591Y-93452171D01*
X104203429Y-93465291D01*
X104299449Y-93480500D01*
X104299454Y-93480500D01*
X104480551Y-93480500D01*
X104567259Y-93466765D01*
X104659409Y-93452171D01*
X104831639Y-93396211D01*
X104992994Y-93313996D01*
X105139501Y-93207553D01*
X105267553Y-93079501D01*
X105373996Y-92932994D01*
X105456211Y-92771639D01*
X105512171Y-92599409D01*
X105526765Y-92507259D01*
X105540500Y-92420551D01*
X105540500Y-92239448D01*
X105513621Y-92069745D01*
X105512171Y-92060591D01*
X105474312Y-91944071D01*
X105456212Y-91888363D01*
X105456211Y-91888360D01*
X105406093Y-91790000D01*
X105373996Y-91727006D01*
X105336011Y-91674724D01*
X105267558Y-91580505D01*
X105267554Y-91580500D01*
X105139501Y-91452447D01*
X105109044Y-91430319D01*
X105066378Y-91374989D01*
X105060399Y-91305376D01*
X105093004Y-91243580D01*
X105109044Y-91229681D01*
X105139501Y-91207553D01*
X105267553Y-91079501D01*
X105373996Y-90932994D01*
X105456211Y-90771639D01*
X105512171Y-90599409D01*
X105526765Y-90507259D01*
X105540500Y-90420551D01*
X105540500Y-90239448D01*
X105523085Y-90129500D01*
X105512171Y-90060591D01*
X105456211Y-89888361D01*
X105456211Y-89888360D01*
X105427740Y-89832484D01*
X105373996Y-89727006D01*
X105347108Y-89689998D01*
X105267558Y-89580505D01*
X105267554Y-89580500D01*
X105139499Y-89452445D01*
X105139494Y-89452441D01*
X105060604Y-89395124D01*
X105017938Y-89339794D01*
X105013043Y-89306595D01*
X104458167Y-88751719D01*
X104554041Y-88726030D01*
X104650952Y-88670079D01*
X104730079Y-88590952D01*
X104786030Y-88494041D01*
X104811719Y-88398167D01*
X105362085Y-88948533D01*
X105362085Y-88948532D01*
X105373568Y-88932730D01*
X105455745Y-88771452D01*
X105455748Y-88771444D01*
X105511682Y-88599293D01*
X105540000Y-88420506D01*
X105540000Y-88239493D01*
X105511682Y-88060706D01*
X105455748Y-87888555D01*
X105455747Y-87888552D01*
X105373571Y-87727275D01*
X105373566Y-87727267D01*
X105362085Y-87711466D01*
X104811719Y-88261832D01*
X104786030Y-88165959D01*
X104730079Y-88069048D01*
X104650952Y-87989921D01*
X104554041Y-87933970D01*
X104458165Y-87908280D01*
X104849628Y-87516818D01*
X104910951Y-87483333D01*
X104937307Y-87480499D01*
X105087872Y-87480499D01*
X105147483Y-87474091D01*
X105282331Y-87423796D01*
X105397546Y-87337546D01*
X105483796Y-87222331D01*
X105534091Y-87087483D01*
X105540500Y-87027873D01*
X105540499Y-85632128D01*
X105534091Y-85572517D01*
X105483796Y-85437669D01*
X105483795Y-85437668D01*
X105483793Y-85437664D01*
X105397547Y-85322455D01*
X105397544Y-85322452D01*
X105282335Y-85236206D01*
X105282328Y-85236202D01*
X105147482Y-85185908D01*
X105147483Y-85185908D01*
X105087883Y-85179501D01*
X105087881Y-85179500D01*
X105087873Y-85179500D01*
X105087864Y-85179500D01*
X103692129Y-85179500D01*
X103692123Y-85179501D01*
X103632516Y-85185908D01*
X103497671Y-85236202D01*
X103497664Y-85236206D01*
X103382455Y-85322452D01*
X103382452Y-85322455D01*
X103296206Y-85437664D01*
X103296202Y-85437671D01*
X103245908Y-85572517D01*
X103239501Y-85632116D01*
X103239501Y-85632123D01*
X103239500Y-85632135D01*
X60482081Y-85632135D01*
X56016819Y-81166873D01*
X55983334Y-81105550D01*
X55980500Y-81079192D01*
X55980500Y-77150808D01*
X56000185Y-77083769D01*
X56016819Y-77063127D01*
X57023127Y-76056819D01*
X57084450Y-76023334D01*
X57110808Y-76020500D01*
X70189192Y-76020500D01*
X70256231Y-76040185D01*
G37*
G04 #@! TD.AperFunction*
G04 #@! TA.AperFunction,Conductor*
G36*
X181442463Y-49020226D02*
G01*
X181488257Y-49072997D01*
X181499500Y-49124591D01*
X181499500Y-124525590D01*
X181479815Y-124592629D01*
X181427011Y-124638384D01*
X181375591Y-124649590D01*
X45424591Y-124749407D01*
X45357537Y-124729772D01*
X45311743Y-124677001D01*
X45300500Y-124625407D01*
X45300500Y-119575000D01*
X46629999Y-119575000D01*
X46754999Y-120649999D01*
X47254998Y-121874998D01*
X47254999Y-121874999D01*
X47255000Y-121875000D01*
X48255000Y-122900000D01*
X49555000Y-123375000D01*
X50330000Y-123485275D01*
X50780000Y-123450000D01*
X52230000Y-123000000D01*
X53180000Y-122125000D01*
X53655000Y-121350000D01*
X53903360Y-120539999D01*
X54015274Y-120175004D01*
X54015274Y-120175002D01*
X54015275Y-120175000D01*
X54030000Y-119450000D01*
X53630000Y-118200000D01*
X53261756Y-117654999D01*
X53005000Y-117274999D01*
X53004998Y-117274998D01*
X52030003Y-116500002D01*
X52030001Y-116500001D01*
X52030000Y-116500000D01*
X50880000Y-116114725D01*
X50879999Y-116114724D01*
X50879997Y-116114724D01*
X49730003Y-116074999D01*
X49730000Y-116075000D01*
X49365026Y-116218127D01*
X48455002Y-116574999D01*
X48454998Y-116575001D01*
X47505000Y-117349998D01*
X47505000Y-117349999D01*
X46854999Y-118550001D01*
X46630000Y-119574998D01*
X46629999Y-119575000D01*
X45300500Y-119575000D01*
X45300500Y-108584071D01*
X52769499Y-108584071D01*
X52794497Y-108709738D01*
X52794499Y-108709744D01*
X52843534Y-108828125D01*
X52914726Y-108934673D01*
X66875326Y-122895273D01*
X66875329Y-122895275D01*
X66875331Y-122895277D01*
X66981873Y-122966465D01*
X67100256Y-123015501D01*
X67100260Y-123015501D01*
X67100261Y-123015502D01*
X67225928Y-123040500D01*
X67225931Y-123040500D01*
X144044071Y-123040500D01*
X144128615Y-123023682D01*
X144169744Y-123015501D01*
X144288127Y-122966465D01*
X144394669Y-122895277D01*
X146049949Y-121239997D01*
X147824947Y-119465000D01*
X172799999Y-119465000D01*
X172924999Y-120539999D01*
X173424998Y-121764998D01*
X173424999Y-121764999D01*
X173425000Y-121765000D01*
X174425000Y-122790000D01*
X175725000Y-123265000D01*
X176500000Y-123375275D01*
X176950000Y-123340000D01*
X178400000Y-122890000D01*
X179350000Y-122015000D01*
X179825000Y-121240000D01*
X180005904Y-120650000D01*
X180185274Y-120065004D01*
X180185274Y-120065002D01*
X180185275Y-120065000D01*
X180200000Y-119340000D01*
X179800000Y-118090000D01*
X179506081Y-117655000D01*
X179175000Y-117164999D01*
X179174998Y-117164998D01*
X178200003Y-116390002D01*
X178200001Y-116390001D01*
X178200000Y-116390000D01*
X177050000Y-116004725D01*
X177049999Y-116004724D01*
X177049997Y-116004724D01*
X175900003Y-115964999D01*
X175900000Y-115965000D01*
X175619503Y-116074999D01*
X174625002Y-116464999D01*
X174624998Y-116465001D01*
X173675000Y-117239998D01*
X173675000Y-117239999D01*
X173024999Y-118440001D01*
X172800000Y-119464998D01*
X172799999Y-119465000D01*
X147824947Y-119465000D01*
X147908548Y-119381399D01*
X150315272Y-116974674D01*
X150315273Y-116974673D01*
X150315277Y-116974669D01*
X150386465Y-116868127D01*
X150435501Y-116749744D01*
X150435501Y-116749740D01*
X150435503Y-116749737D01*
X150445846Y-116697739D01*
X150445846Y-116697738D01*
X150460500Y-116624071D01*
X150460500Y-115305000D01*
X162089999Y-115305000D01*
X162214999Y-116379999D01*
X162714998Y-117604998D01*
X162714999Y-117604999D01*
X162715000Y-117605000D01*
X163715000Y-118630000D01*
X165015000Y-119105000D01*
X165790000Y-119215275D01*
X166240000Y-119180000D01*
X167690000Y-118730000D01*
X168640000Y-117855000D01*
X169115000Y-117080000D01*
X169179964Y-116868127D01*
X169475274Y-115905004D01*
X169475274Y-115905002D01*
X169475275Y-115905000D01*
X169488984Y-115230002D01*
X169490000Y-115180002D01*
X169489999Y-115180001D01*
X169490000Y-115180000D01*
X169090000Y-113930000D01*
X168887296Y-113629999D01*
X168465000Y-113004999D01*
X168464998Y-113004998D01*
X167490003Y-112230002D01*
X167490001Y-112230001D01*
X167490000Y-112230000D01*
X166340000Y-111844725D01*
X166339999Y-111844724D01*
X166339997Y-111844724D01*
X165190003Y-111804999D01*
X165190000Y-111805000D01*
X164616252Y-112029999D01*
X163915002Y-112304999D01*
X163914998Y-112305001D01*
X162965000Y-113079998D01*
X162965000Y-113079999D01*
X162314999Y-114280001D01*
X162090000Y-115304998D01*
X162089999Y-115305000D01*
X150460500Y-115305000D01*
X150460500Y-102515928D01*
X150435502Y-102390261D01*
X150435501Y-102390260D01*
X150435501Y-102390256D01*
X150386465Y-102271873D01*
X150386464Y-102271872D01*
X150386461Y-102271866D01*
X150315277Y-102165332D01*
X150288294Y-102138349D01*
X150224669Y-102074724D01*
X149490327Y-101340382D01*
X147184674Y-99034727D01*
X147184673Y-99034726D01*
X147184669Y-99034723D01*
X147078127Y-98963535D01*
X146959744Y-98914499D01*
X146959738Y-98914497D01*
X146834071Y-98889500D01*
X146834069Y-98889500D01*
X142695931Y-98889500D01*
X142695929Y-98889500D01*
X142570261Y-98914497D01*
X142570255Y-98914499D01*
X142451874Y-98963534D01*
X142345326Y-99034726D01*
X141074726Y-100305326D01*
X141003534Y-100411874D01*
X140954499Y-100530255D01*
X140954497Y-100530261D01*
X140929500Y-100655928D01*
X140929500Y-101340382D01*
X140909815Y-101407421D01*
X140875408Y-101441099D01*
X140876125Y-101442085D01*
X140700213Y-101569890D01*
X140549890Y-101720213D01*
X140424949Y-101892182D01*
X140420484Y-101900946D01*
X140372509Y-101951742D01*
X140304688Y-101968536D01*
X140238553Y-101945998D01*
X140199516Y-101900946D01*
X140195050Y-101892182D01*
X140070109Y-101720213D01*
X139919786Y-101569890D01*
X139747820Y-101444951D01*
X139558414Y-101348444D01*
X139558413Y-101348443D01*
X139558412Y-101348443D01*
X139356243Y-101282754D01*
X139356241Y-101282753D01*
X139356240Y-101282753D01*
X139194957Y-101257208D01*
X139146287Y-101249500D01*
X138933713Y-101249500D01*
X138885042Y-101257208D01*
X138723760Y-101282753D01*
X138521585Y-101348444D01*
X138332179Y-101444951D01*
X138160213Y-101569890D01*
X138009890Y-101720213D01*
X137884949Y-101892182D01*
X137880484Y-101900946D01*
X137832509Y-101951742D01*
X137764688Y-101968536D01*
X137698553Y-101945998D01*
X137659516Y-101900946D01*
X137655050Y-101892182D01*
X137530109Y-101720213D01*
X137379786Y-101569890D01*
X137203875Y-101442085D01*
X137204851Y-101440740D01*
X137162834Y-101394295D01*
X137150500Y-101340382D01*
X137150500Y-100215928D01*
X137125502Y-100090261D01*
X137125501Y-100090260D01*
X137125501Y-100090256D01*
X137076465Y-99971873D01*
X137062022Y-99950257D01*
X137062021Y-99950255D01*
X137005277Y-99865331D01*
X137005271Y-99865324D01*
X135264673Y-98124726D01*
X135264669Y-98124723D01*
X135158127Y-98053535D01*
X135039744Y-98004499D01*
X135039738Y-98004497D01*
X134914071Y-97979500D01*
X134914069Y-97979500D01*
X122900808Y-97979500D01*
X122833769Y-97959815D01*
X122813127Y-97943181D01*
X116864946Y-91995000D01*
X123089999Y-91995000D01*
X123214999Y-93069999D01*
X123714998Y-94294998D01*
X123714999Y-94294999D01*
X123715000Y-94295000D01*
X124715000Y-95320000D01*
X126015000Y-95795000D01*
X126790000Y-95905275D01*
X127240000Y-95870000D01*
X128690000Y-95420000D01*
X129640000Y-94545000D01*
X130115000Y-93770000D01*
X130115001Y-93769997D01*
X130475274Y-92595004D01*
X130475274Y-92595002D01*
X130475275Y-92595000D01*
X130482469Y-92240808D01*
X130489055Y-91916562D01*
X130489087Y-91915000D01*
X162349999Y-91915000D01*
X162474999Y-92989999D01*
X162974998Y-94214998D01*
X162974999Y-94214999D01*
X162975000Y-94215000D01*
X163975000Y-95240000D01*
X165275000Y-95715000D01*
X166050000Y-95825275D01*
X166500000Y-95790000D01*
X167950000Y-95340000D01*
X168900000Y-94465000D01*
X169375000Y-93690000D01*
X169413395Y-93564780D01*
X169735274Y-92515004D01*
X169735274Y-92515002D01*
X169735275Y-92515000D01*
X169750000Y-91790000D01*
X169350000Y-90540000D01*
X168909705Y-89888363D01*
X168725000Y-89614999D01*
X168724998Y-89614998D01*
X167750003Y-88840002D01*
X167750001Y-88840001D01*
X167750000Y-88840000D01*
X166600000Y-88454725D01*
X166599999Y-88454724D01*
X166599997Y-88454724D01*
X165450003Y-88414999D01*
X165450000Y-88415000D01*
X165246003Y-88494999D01*
X164175002Y-88914999D01*
X164174998Y-88915001D01*
X163225000Y-89689998D01*
X163225000Y-89689999D01*
X162574999Y-90890001D01*
X162350000Y-91914998D01*
X162349999Y-91915000D01*
X130489087Y-91915000D01*
X130490000Y-91870002D01*
X130489999Y-91870001D01*
X130490000Y-91870000D01*
X130090000Y-90620000D01*
X129595651Y-89888363D01*
X129465000Y-89694999D01*
X129464998Y-89694998D01*
X128490003Y-88920002D01*
X128490001Y-88920001D01*
X128490000Y-88920000D01*
X127340000Y-88534725D01*
X127339999Y-88534724D01*
X127339997Y-88534724D01*
X126190003Y-88494999D01*
X126190000Y-88495000D01*
X125924053Y-88599293D01*
X124915002Y-88994999D01*
X124914998Y-88995001D01*
X123965000Y-89769998D01*
X123965000Y-89769999D01*
X123314999Y-90970001D01*
X123090000Y-91994998D01*
X123089999Y-91995000D01*
X116864946Y-91995000D01*
X116516819Y-91646873D01*
X116483334Y-91585550D01*
X116480500Y-91559192D01*
X116480500Y-83425928D01*
X116455502Y-83300261D01*
X116455501Y-83300260D01*
X116455501Y-83300256D01*
X116406465Y-83181873D01*
X116335277Y-83075331D01*
X116335275Y-83075329D01*
X116335273Y-83075326D01*
X114424673Y-81164726D01*
X114410940Y-81155550D01*
X114318127Y-81093535D01*
X114199744Y-81044499D01*
X114199738Y-81044497D01*
X114074071Y-81019500D01*
X114074069Y-81019500D01*
X95430860Y-81019500D01*
X95363821Y-80999815D01*
X95318066Y-80947011D01*
X95308122Y-80877853D01*
X95337147Y-80814297D01*
X95387527Y-80779318D01*
X95399342Y-80774910D01*
X95402331Y-80773796D01*
X95517546Y-80687546D01*
X95603796Y-80572331D01*
X95654091Y-80437483D01*
X95660500Y-80377873D01*
X95660499Y-78682128D01*
X95654091Y-78622517D01*
X95603796Y-78487669D01*
X95603795Y-78487668D01*
X95603793Y-78487664D01*
X95517547Y-78372455D01*
X95517544Y-78372452D01*
X95402335Y-78286206D01*
X95402328Y-78286202D01*
X95267482Y-78235908D01*
X95267483Y-78235908D01*
X95207883Y-78229501D01*
X95207881Y-78229500D01*
X95207873Y-78229500D01*
X95207864Y-78229500D01*
X93512129Y-78229500D01*
X93512123Y-78229501D01*
X93452516Y-78235908D01*
X93317671Y-78286202D01*
X93317664Y-78286206D01*
X93202455Y-78372452D01*
X93202452Y-78372455D01*
X93116206Y-78487664D01*
X93116202Y-78487671D01*
X93065908Y-78622516D01*
X93061939Y-78659440D01*
X93035201Y-78723991D01*
X92977809Y-78763839D01*
X92907983Y-78766332D01*
X92847895Y-78730679D01*
X92838332Y-78719070D01*
X92811967Y-78682782D01*
X92667213Y-78538028D01*
X92501613Y-78417715D01*
X92501612Y-78417714D01*
X92501610Y-78417713D01*
X92421542Y-78376916D01*
X92319223Y-78324781D01*
X92124534Y-78261522D01*
X91949995Y-78233878D01*
X91922352Y-78229500D01*
X91717648Y-78229500D01*
X91693329Y-78233351D01*
X91515465Y-78261522D01*
X91320776Y-78324781D01*
X91138386Y-78417715D01*
X90972786Y-78538028D01*
X90828028Y-78682786D01*
X90707715Y-78848386D01*
X90660485Y-78941080D01*
X90612510Y-78991876D01*
X90544689Y-79008671D01*
X90478554Y-78986134D01*
X90439515Y-78941080D01*
X90392419Y-78848650D01*
X90392287Y-78848390D01*
X90330858Y-78763839D01*
X90271971Y-78682786D01*
X90127213Y-78538028D01*
X89961613Y-78417715D01*
X89961612Y-78417714D01*
X89961610Y-78417713D01*
X89881542Y-78376916D01*
X89779223Y-78324781D01*
X89584534Y-78261522D01*
X89409995Y-78233878D01*
X89382352Y-78229500D01*
X89177648Y-78229500D01*
X89153329Y-78233351D01*
X88975465Y-78261522D01*
X88780776Y-78324781D01*
X88598386Y-78417715D01*
X88432786Y-78538028D01*
X88288028Y-78682786D01*
X88167713Y-78848388D01*
X88120203Y-78941630D01*
X88072228Y-78992426D01*
X88004407Y-79009220D01*
X87938272Y-78986682D01*
X87899234Y-78941628D01*
X87851861Y-78848652D01*
X87731582Y-78683105D01*
X87731582Y-78683104D01*
X87586895Y-78538417D01*
X87421349Y-78418140D01*
X87239029Y-78325244D01*
X87044413Y-78262009D01*
X86990000Y-78253390D01*
X86990000Y-79096988D01*
X86932993Y-79064075D01*
X86805826Y-79030000D01*
X86674174Y-79030000D01*
X86547007Y-79064075D01*
X86490000Y-79096988D01*
X86490000Y-78253390D01*
X86435586Y-78262009D01*
X86240970Y-78325244D01*
X86058650Y-78418140D01*
X85893105Y-78538417D01*
X85893104Y-78538417D01*
X85748417Y-78683104D01*
X85748417Y-78683105D01*
X85628140Y-78848650D01*
X85580765Y-78941629D01*
X85532790Y-78992425D01*
X85464969Y-79009220D01*
X85398834Y-78986682D01*
X85359795Y-78941629D01*
X85312419Y-78848650D01*
X85312287Y-78848390D01*
X85250858Y-78763839D01*
X85191971Y-78682786D01*
X85047213Y-78538028D01*
X84881613Y-78417715D01*
X84881612Y-78417714D01*
X84881610Y-78417713D01*
X84801542Y-78376916D01*
X84699223Y-78324781D01*
X84504534Y-78261522D01*
X84329995Y-78233878D01*
X84302352Y-78229500D01*
X84097648Y-78229500D01*
X84073329Y-78233351D01*
X83895465Y-78261522D01*
X83700776Y-78324781D01*
X83518386Y-78417715D01*
X83352786Y-78538028D01*
X83208028Y-78682786D01*
X83087715Y-78848386D01*
X83040485Y-78941080D01*
X82992510Y-78991876D01*
X82924689Y-79008671D01*
X82858554Y-78986134D01*
X82819515Y-78941080D01*
X82772419Y-78848650D01*
X82772287Y-78848390D01*
X82710858Y-78763839D01*
X82651971Y-78682786D01*
X82507213Y-78538028D01*
X82341613Y-78417715D01*
X82341612Y-78417714D01*
X82341610Y-78417713D01*
X82261542Y-78376916D01*
X82159223Y-78324781D01*
X81964534Y-78261522D01*
X81789995Y-78233878D01*
X81762352Y-78229500D01*
X81557648Y-78229500D01*
X81533329Y-78233351D01*
X81355465Y-78261522D01*
X81160776Y-78324781D01*
X80978386Y-78417715D01*
X80812786Y-78538028D01*
X80668028Y-78682786D01*
X80547715Y-78848386D01*
X80500485Y-78941080D01*
X80452510Y-78991876D01*
X80384689Y-79008671D01*
X80318554Y-78986134D01*
X80279515Y-78941080D01*
X80232419Y-78848650D01*
X80232287Y-78848390D01*
X80170858Y-78763839D01*
X80111971Y-78682786D01*
X79967213Y-78538028D01*
X79801613Y-78417715D01*
X79801612Y-78417714D01*
X79801610Y-78417713D01*
X79721542Y-78376916D01*
X79619223Y-78324781D01*
X79424534Y-78261522D01*
X79249995Y-78233878D01*
X79222352Y-78229500D01*
X79017648Y-78229500D01*
X78993329Y-78233351D01*
X78815465Y-78261522D01*
X78620776Y-78324781D01*
X78438386Y-78417715D01*
X78272786Y-78538028D01*
X78128028Y-78682786D01*
X78007715Y-78848386D01*
X77960485Y-78941080D01*
X77912510Y-78991876D01*
X77844689Y-79008671D01*
X77778554Y-78986134D01*
X77739515Y-78941080D01*
X77692419Y-78848650D01*
X77692287Y-78848390D01*
X77630858Y-78763839D01*
X77571971Y-78682786D01*
X77427217Y-78538032D01*
X77427212Y-78538028D01*
X77281615Y-78432246D01*
X77238949Y-78376916D01*
X77230500Y-78331928D01*
X77230500Y-76845928D01*
X77205502Y-76720261D01*
X77205501Y-76720260D01*
X77205501Y-76720256D01*
X77156465Y-76601873D01*
X77156464Y-76601872D01*
X77156461Y-76601866D01*
X77085277Y-76495332D01*
X77085276Y-76495331D01*
X76994669Y-76404724D01*
X76445273Y-75855328D01*
X73734674Y-73144727D01*
X73734673Y-73144726D01*
X73628134Y-73073540D01*
X73628127Y-73073535D01*
X73509744Y-73024499D01*
X73509738Y-73024497D01*
X73384071Y-72999500D01*
X73384069Y-72999500D01*
X56685931Y-72999500D01*
X56685929Y-72999500D01*
X56560261Y-73024497D01*
X56560251Y-73024500D01*
X56511220Y-73044810D01*
X56441881Y-73073530D01*
X56441863Y-73073540D01*
X56335332Y-73144721D01*
X56335325Y-73144727D01*
X53624725Y-75855328D01*
X53624724Y-75855329D01*
X53564589Y-75945330D01*
X53564587Y-75945332D01*
X53553537Y-75961868D01*
X53553534Y-75961874D01*
X53504499Y-76080255D01*
X53504497Y-76080261D01*
X53479500Y-76205928D01*
X53479500Y-81904071D01*
X53503655Y-82025501D01*
X53503656Y-82025505D01*
X53504498Y-82029742D01*
X53504499Y-82029744D01*
X53553535Y-82148127D01*
X53624723Y-82254669D01*
X53624726Y-82254673D01*
X60695325Y-89325272D01*
X60695332Y-89325278D01*
X60799866Y-89395124D01*
X60801874Y-89396466D01*
X60871221Y-89425189D01*
X60920256Y-89445501D01*
X60920259Y-89445501D01*
X60920260Y-89445502D01*
X61045928Y-89470500D01*
X61045931Y-89470500D01*
X92243228Y-89470500D01*
X92310267Y-89490185D01*
X92330909Y-89506819D01*
X100489361Y-97665272D01*
X100489362Y-97665273D01*
X100489365Y-97665275D01*
X100489367Y-97665277D01*
X100595909Y-97736465D01*
X100714292Y-97785501D01*
X100714296Y-97785501D01*
X100714297Y-97785502D01*
X100839964Y-97810500D01*
X100839967Y-97810500D01*
X110349192Y-97810500D01*
X110416231Y-97830185D01*
X110436873Y-97846819D01*
X120545325Y-107955272D01*
X120545331Y-107955277D01*
X120651874Y-108026466D01*
X120721221Y-108055189D01*
X120770256Y-108075501D01*
X120770259Y-108075501D01*
X120770260Y-108075502D01*
X120895928Y-108100500D01*
X120895931Y-108100500D01*
X138054071Y-108100500D01*
X138138615Y-108083682D01*
X138179744Y-108075501D01*
X138298127Y-108026465D01*
X138308661Y-108019425D01*
X138315701Y-108014723D01*
X138374878Y-107975181D01*
X138404669Y-107955277D01*
X139545276Y-106814670D01*
X139616465Y-106708127D01*
X139665501Y-106589744D01*
X139670478Y-106564724D01*
X139690500Y-106464069D01*
X139690500Y-106392307D01*
X139691360Y-106385042D01*
X139702320Y-106359362D01*
X139710185Y-106332578D01*
X139716310Y-106326582D01*
X139718787Y-106320781D01*
X139730040Y-106313145D01*
X139744592Y-106298902D01*
X139743874Y-106297914D01*
X139747811Y-106295053D01*
X139747816Y-106295051D01*
X139919792Y-106170104D01*
X140070104Y-106019792D01*
X140070106Y-106019788D01*
X140070109Y-106019786D01*
X140195048Y-105847820D01*
X140195047Y-105847820D01*
X140195051Y-105847816D01*
X140199514Y-105839054D01*
X140247488Y-105788259D01*
X140315308Y-105771463D01*
X140381444Y-105793999D01*
X140420486Y-105839056D01*
X140424951Y-105847820D01*
X140549890Y-106019786D01*
X140549896Y-106019792D01*
X140700208Y-106170104D01*
X140872184Y-106295051D01*
X140872188Y-106295053D01*
X140876126Y-106297914D01*
X140875146Y-106299262D01*
X140917160Y-106345690D01*
X140929500Y-106399617D01*
X140929500Y-106749192D01*
X140909815Y-106816231D01*
X140893181Y-106836873D01*
X138676873Y-109053181D01*
X138615550Y-109086666D01*
X138589192Y-109089500D01*
X81730808Y-109089500D01*
X81663769Y-109069815D01*
X81643127Y-109053181D01*
X72186819Y-99596873D01*
X72153334Y-99535550D01*
X72150500Y-99509192D01*
X72150500Y-95968070D01*
X72170185Y-95901031D01*
X72201613Y-95867753D01*
X72347219Y-95761966D01*
X72491966Y-95617219D01*
X72491968Y-95617215D01*
X72491971Y-95617213D01*
X72612284Y-95451614D01*
X72612286Y-95451611D01*
X72612287Y-95451610D01*
X72659516Y-95358917D01*
X72707489Y-95308123D01*
X72775310Y-95291328D01*
X72841445Y-95313865D01*
X72880483Y-95358917D01*
X72911607Y-95420000D01*
X72927715Y-95451614D01*
X73048028Y-95617213D01*
X73192786Y-95761971D01*
X73338383Y-95867751D01*
X73358390Y-95882287D01*
X73438453Y-95923081D01*
X73540776Y-95975218D01*
X73540778Y-95975218D01*
X73540781Y-95975220D01*
X73645137Y-96009127D01*
X73735465Y-96038477D01*
X73836557Y-96054488D01*
X73937648Y-96070500D01*
X73937649Y-96070500D01*
X74142351Y-96070500D01*
X74142352Y-96070500D01*
X74344534Y-96038477D01*
X74539219Y-95975220D01*
X74721610Y-95882287D01*
X74814590Y-95814732D01*
X74887213Y-95761971D01*
X74887215Y-95761968D01*
X74887219Y-95761966D01*
X75031966Y-95617219D01*
X75031968Y-95617215D01*
X75031971Y-95617213D01*
X75152284Y-95451614D01*
X75152286Y-95451611D01*
X75152287Y-95451610D01*
X75199516Y-95358917D01*
X75247489Y-95308123D01*
X75315310Y-95291328D01*
X75381445Y-95313865D01*
X75420483Y-95358917D01*
X75451607Y-95420000D01*
X75467715Y-95451614D01*
X75588028Y-95617213D01*
X75732786Y-95761971D01*
X75878383Y-95867751D01*
X75898390Y-95882287D01*
X75978453Y-95923081D01*
X76080776Y-95975218D01*
X76080778Y-95975218D01*
X76080781Y-95975220D01*
X76185137Y-96009127D01*
X76275465Y-96038477D01*
X76376557Y-96054488D01*
X76477648Y-96070500D01*
X76477649Y-96070500D01*
X76682351Y-96070500D01*
X76682352Y-96070500D01*
X76884534Y-96038477D01*
X77079219Y-95975220D01*
X77261610Y-95882287D01*
X77354590Y-95814732D01*
X77427213Y-95761971D01*
X77427215Y-95761968D01*
X77427219Y-95761966D01*
X77571966Y-95617219D01*
X77571968Y-95617215D01*
X77571971Y-95617213D01*
X77692284Y-95451614D01*
X77692286Y-95451611D01*
X77692287Y-95451610D01*
X77739516Y-95358917D01*
X77787489Y-95308123D01*
X77855310Y-95291328D01*
X77921445Y-95313865D01*
X77960483Y-95358917D01*
X77991607Y-95420000D01*
X78007715Y-95451614D01*
X78128028Y-95617213D01*
X78272786Y-95761971D01*
X78418383Y-95867751D01*
X78438390Y-95882287D01*
X78518453Y-95923081D01*
X78620776Y-95975218D01*
X78620778Y-95975218D01*
X78620781Y-95975220D01*
X78725137Y-96009127D01*
X78815465Y-96038477D01*
X78916557Y-96054488D01*
X79017648Y-96070500D01*
X79017649Y-96070500D01*
X79222351Y-96070500D01*
X79222352Y-96070500D01*
X79424534Y-96038477D01*
X79619219Y-95975220D01*
X79801610Y-95882287D01*
X79894590Y-95814732D01*
X79967213Y-95761971D01*
X79967215Y-95761968D01*
X79967219Y-95761966D01*
X80111966Y-95617219D01*
X80111968Y-95617215D01*
X80111971Y-95617213D01*
X80232284Y-95451614D01*
X80232286Y-95451611D01*
X80232287Y-95451610D01*
X80279516Y-95358917D01*
X80327489Y-95308123D01*
X80395310Y-95291328D01*
X80461445Y-95313865D01*
X80500483Y-95358917D01*
X80531607Y-95420000D01*
X80547715Y-95451614D01*
X80668028Y-95617213D01*
X80812786Y-95761971D01*
X80958383Y-95867751D01*
X80978390Y-95882287D01*
X81058453Y-95923081D01*
X81160776Y-95975218D01*
X81160778Y-95975218D01*
X81160781Y-95975220D01*
X81265137Y-96009127D01*
X81355465Y-96038477D01*
X81456557Y-96054488D01*
X81557648Y-96070500D01*
X81557649Y-96070500D01*
X81762351Y-96070500D01*
X81762352Y-96070500D01*
X81964534Y-96038477D01*
X82159219Y-95975220D01*
X82341610Y-95882287D01*
X82434590Y-95814732D01*
X82507213Y-95761971D01*
X82507215Y-95761968D01*
X82507219Y-95761966D01*
X82651966Y-95617219D01*
X82651968Y-95617215D01*
X82651971Y-95617213D01*
X82772284Y-95451614D01*
X82772286Y-95451611D01*
X82772287Y-95451610D01*
X82819516Y-95358917D01*
X82867489Y-95308123D01*
X82935310Y-95291328D01*
X83001445Y-95313865D01*
X83040483Y-95358917D01*
X83071607Y-95420000D01*
X83087715Y-95451614D01*
X83208028Y-95617213D01*
X83352786Y-95761971D01*
X83498383Y-95867751D01*
X83518390Y-95882287D01*
X83598453Y-95923081D01*
X83700776Y-95975218D01*
X83700778Y-95975218D01*
X83700781Y-95975220D01*
X83805137Y-96009127D01*
X83895465Y-96038477D01*
X83996557Y-96054488D01*
X84097648Y-96070500D01*
X84097649Y-96070500D01*
X84302351Y-96070500D01*
X84302352Y-96070500D01*
X84504534Y-96038477D01*
X84699219Y-95975220D01*
X84881610Y-95882287D01*
X84974590Y-95814732D01*
X85047213Y-95761971D01*
X85047215Y-95761968D01*
X85047219Y-95761966D01*
X85191966Y-95617219D01*
X85191968Y-95617215D01*
X85191971Y-95617213D01*
X85312284Y-95451614D01*
X85312286Y-95451611D01*
X85312287Y-95451610D01*
X85359516Y-95358917D01*
X85407489Y-95308123D01*
X85475310Y-95291328D01*
X85541445Y-95313865D01*
X85580483Y-95358917D01*
X85611607Y-95420000D01*
X85627715Y-95451614D01*
X85748028Y-95617213D01*
X85892786Y-95761971D01*
X86038383Y-95867751D01*
X86058390Y-95882287D01*
X86138453Y-95923081D01*
X86240776Y-95975218D01*
X86240778Y-95975218D01*
X86240781Y-95975220D01*
X86345137Y-96009127D01*
X86435465Y-96038477D01*
X86536557Y-96054488D01*
X86637648Y-96070500D01*
X86637649Y-96070500D01*
X86842351Y-96070500D01*
X86842352Y-96070500D01*
X87044534Y-96038477D01*
X87239219Y-95975220D01*
X87421610Y-95882287D01*
X87514590Y-95814732D01*
X87587213Y-95761971D01*
X87587215Y-95761968D01*
X87587219Y-95761966D01*
X87731966Y-95617219D01*
X87731968Y-95617215D01*
X87731971Y-95617213D01*
X87852284Y-95451614D01*
X87852286Y-95451611D01*
X87852287Y-95451610D01*
X87899516Y-95358917D01*
X87947489Y-95308123D01*
X88015310Y-95291328D01*
X88081445Y-95313865D01*
X88120483Y-95358917D01*
X88151607Y-95420000D01*
X88167715Y-95451614D01*
X88288028Y-95617213D01*
X88432786Y-95761971D01*
X88578383Y-95867751D01*
X88598390Y-95882287D01*
X88678453Y-95923081D01*
X88780776Y-95975218D01*
X88780778Y-95975218D01*
X88780781Y-95975220D01*
X88885137Y-96009127D01*
X88975465Y-96038477D01*
X89076557Y-96054488D01*
X89177648Y-96070500D01*
X89177649Y-96070500D01*
X89382351Y-96070500D01*
X89382352Y-96070500D01*
X89584534Y-96038477D01*
X89779219Y-95975220D01*
X89961610Y-95882287D01*
X90054590Y-95814732D01*
X90127213Y-95761971D01*
X90127215Y-95761968D01*
X90127219Y-95761966D01*
X90271966Y-95617219D01*
X90271968Y-95617215D01*
X90271971Y-95617213D01*
X90392284Y-95451614D01*
X90392286Y-95451611D01*
X90392287Y-95451610D01*
X90439795Y-95358369D01*
X90487770Y-95307574D01*
X90555591Y-95290779D01*
X90621725Y-95313316D01*
X90660765Y-95358370D01*
X90708140Y-95451349D01*
X90828417Y-95616894D01*
X90828417Y-95616895D01*
X90973104Y-95761582D01*
X91138650Y-95881859D01*
X91320968Y-95974754D01*
X91515578Y-96037988D01*
X91570000Y-96046607D01*
X91570000Y-95203012D01*
X91627007Y-95235925D01*
X91754174Y-95270000D01*
X91885826Y-95270000D01*
X92012993Y-95235925D01*
X92070000Y-95203012D01*
X92070000Y-96046606D01*
X92124421Y-96037988D01*
X92319031Y-95974754D01*
X92501349Y-95881859D01*
X92666894Y-95761582D01*
X92666895Y-95761582D01*
X92811582Y-95616895D01*
X92811582Y-95616894D01*
X92931861Y-95451347D01*
X92979234Y-95358371D01*
X93027208Y-95307575D01*
X93095028Y-95290779D01*
X93161164Y-95313316D01*
X93200203Y-95358369D01*
X93247713Y-95451611D01*
X93368028Y-95617213D01*
X93512786Y-95761971D01*
X93658383Y-95867751D01*
X93678390Y-95882287D01*
X93758453Y-95923081D01*
X93860776Y-95975218D01*
X93860778Y-95975218D01*
X93860781Y-95975220D01*
X93965137Y-96009127D01*
X94055465Y-96038477D01*
X94156557Y-96054488D01*
X94257648Y-96070500D01*
X94257649Y-96070500D01*
X94462351Y-96070500D01*
X94462352Y-96070500D01*
X94664534Y-96038477D01*
X94859219Y-95975220D01*
X95041610Y-95882287D01*
X95134590Y-95814732D01*
X95207213Y-95761971D01*
X95207215Y-95761968D01*
X95207219Y-95761966D01*
X95351966Y-95617219D01*
X95351968Y-95617215D01*
X95351971Y-95617213D01*
X95404732Y-95544590D01*
X95472287Y-95451610D01*
X95565220Y-95269219D01*
X95628477Y-95074534D01*
X95660500Y-94872352D01*
X95660500Y-94667648D01*
X95628477Y-94465466D01*
X95628325Y-94464999D01*
X95573089Y-94294999D01*
X95565220Y-94270781D01*
X95565218Y-94270778D01*
X95565218Y-94270776D01*
X95472419Y-94088650D01*
X95472287Y-94088390D01*
X95464556Y-94077749D01*
X95351971Y-93922786D01*
X95207213Y-93778028D01*
X95041613Y-93657715D01*
X95041612Y-93657714D01*
X95041610Y-93657713D01*
X94961542Y-93616916D01*
X94859223Y-93564781D01*
X94664534Y-93501522D01*
X94489995Y-93473878D01*
X94462352Y-93469500D01*
X94257648Y-93469500D01*
X94233329Y-93473351D01*
X94055465Y-93501522D01*
X93860776Y-93564781D01*
X93678386Y-93657715D01*
X93512786Y-93778028D01*
X93368028Y-93922786D01*
X93247713Y-94088388D01*
X93200203Y-94181630D01*
X93152228Y-94232426D01*
X93084407Y-94249220D01*
X93018272Y-94226682D01*
X92979234Y-94181628D01*
X92931861Y-94088652D01*
X92811582Y-93923105D01*
X92811582Y-93923104D01*
X92666895Y-93778417D01*
X92501349Y-93658140D01*
X92319029Y-93565244D01*
X92124413Y-93502009D01*
X92070000Y-93493390D01*
X92070000Y-94336988D01*
X92012993Y-94304075D01*
X91885826Y-94270000D01*
X91754174Y-94270000D01*
X91627007Y-94304075D01*
X91570000Y-94336988D01*
X91570000Y-93493390D01*
X91515586Y-93502009D01*
X91320970Y-93565244D01*
X91138650Y-93658140D01*
X90973105Y-93778417D01*
X90973104Y-93778417D01*
X90828417Y-93923104D01*
X90828417Y-93923105D01*
X90708140Y-94088650D01*
X90660765Y-94181629D01*
X90612790Y-94232425D01*
X90544969Y-94249220D01*
X90478834Y-94226682D01*
X90439795Y-94181629D01*
X90392419Y-94088650D01*
X90392287Y-94088390D01*
X90384556Y-94077749D01*
X90271971Y-93922786D01*
X90127213Y-93778028D01*
X89961613Y-93657715D01*
X89961612Y-93657714D01*
X89961610Y-93657713D01*
X89881542Y-93616916D01*
X89779223Y-93564781D01*
X89584534Y-93501522D01*
X89409995Y-93473878D01*
X89382352Y-93469500D01*
X89177648Y-93469500D01*
X89153329Y-93473351D01*
X88975465Y-93501522D01*
X88780776Y-93564781D01*
X88598386Y-93657715D01*
X88432786Y-93778028D01*
X88288028Y-93922786D01*
X88167715Y-94088386D01*
X88120485Y-94181080D01*
X88072510Y-94231876D01*
X88004689Y-94248671D01*
X87938554Y-94226134D01*
X87899515Y-94181080D01*
X87852419Y-94088650D01*
X87852287Y-94088390D01*
X87844556Y-94077749D01*
X87731971Y-93922786D01*
X87587213Y-93778028D01*
X87421613Y-93657715D01*
X87421612Y-93657714D01*
X87421610Y-93657713D01*
X87341542Y-93616916D01*
X87239223Y-93564781D01*
X87044534Y-93501522D01*
X86869995Y-93473878D01*
X86842352Y-93469500D01*
X86637648Y-93469500D01*
X86613329Y-93473351D01*
X86435465Y-93501522D01*
X86240776Y-93564781D01*
X86058386Y-93657715D01*
X85892786Y-93778028D01*
X85748028Y-93922786D01*
X85627715Y-94088386D01*
X85580485Y-94181080D01*
X85532510Y-94231876D01*
X85464689Y-94248671D01*
X85398554Y-94226134D01*
X85359515Y-94181080D01*
X85312419Y-94088650D01*
X85312287Y-94088390D01*
X85304556Y-94077749D01*
X85191971Y-93922786D01*
X85047213Y-93778028D01*
X84881613Y-93657715D01*
X84881612Y-93657714D01*
X84881610Y-93657713D01*
X84801542Y-93616916D01*
X84699223Y-93564781D01*
X84504534Y-93501522D01*
X84329995Y-93473878D01*
X84302352Y-93469500D01*
X84097648Y-93469500D01*
X84073329Y-93473351D01*
X83895465Y-93501522D01*
X83700776Y-93564781D01*
X83518386Y-93657715D01*
X83352786Y-93778028D01*
X83208028Y-93922786D01*
X83087715Y-94088386D01*
X83040485Y-94181080D01*
X82992510Y-94231876D01*
X82924689Y-94248671D01*
X82858554Y-94226134D01*
X82819515Y-94181080D01*
X82772419Y-94088650D01*
X82772287Y-94088390D01*
X82764556Y-94077749D01*
X82651971Y-93922786D01*
X82507213Y-93778028D01*
X82341613Y-93657715D01*
X82341612Y-93657714D01*
X82341610Y-93657713D01*
X82261542Y-93616916D01*
X82159223Y-93564781D01*
X81964534Y-93501522D01*
X81789995Y-93473878D01*
X81762352Y-93469500D01*
X81557648Y-93469500D01*
X81533329Y-93473351D01*
X81355465Y-93501522D01*
X81160776Y-93564781D01*
X80978386Y-93657715D01*
X80812786Y-93778028D01*
X80668028Y-93922786D01*
X80547715Y-94088386D01*
X80500485Y-94181080D01*
X80452510Y-94231876D01*
X80384689Y-94248671D01*
X80318554Y-94226134D01*
X80279515Y-94181080D01*
X80232419Y-94088650D01*
X80232287Y-94088390D01*
X80224556Y-94077749D01*
X80111971Y-93922786D01*
X79967213Y-93778028D01*
X79801613Y-93657715D01*
X79801612Y-93657714D01*
X79801610Y-93657713D01*
X79721542Y-93616916D01*
X79619223Y-93564781D01*
X79424534Y-93501522D01*
X79249995Y-93473878D01*
X79222352Y-93469500D01*
X79017648Y-93469500D01*
X78993329Y-93473351D01*
X78815465Y-93501522D01*
X78620776Y-93564781D01*
X78438386Y-93657715D01*
X78272786Y-93778028D01*
X78128028Y-93922786D01*
X78007715Y-94088386D01*
X77960485Y-94181080D01*
X77912510Y-94231876D01*
X77844689Y-94248671D01*
X77778554Y-94226134D01*
X77739515Y-94181080D01*
X77692419Y-94088650D01*
X77692287Y-94088390D01*
X77684556Y-94077749D01*
X77571971Y-93922786D01*
X77427213Y-93778028D01*
X77261613Y-93657715D01*
X77261612Y-93657714D01*
X77261610Y-93657713D01*
X77181542Y-93616916D01*
X77079223Y-93564781D01*
X76884534Y-93501522D01*
X76709995Y-93473878D01*
X76682352Y-93469500D01*
X76477648Y-93469500D01*
X76453329Y-93473351D01*
X76275465Y-93501522D01*
X76080776Y-93564781D01*
X75898386Y-93657715D01*
X75732786Y-93778028D01*
X75588028Y-93922786D01*
X75467715Y-94088386D01*
X75420485Y-94181080D01*
X75372510Y-94231876D01*
X75304689Y-94248671D01*
X75238554Y-94226134D01*
X75199515Y-94181080D01*
X75152419Y-94088650D01*
X75152287Y-94088390D01*
X75144556Y-94077749D01*
X75031971Y-93922786D01*
X74887217Y-93778032D01*
X74887212Y-93778028D01*
X74741615Y-93672246D01*
X74698949Y-93616916D01*
X74690500Y-93571928D01*
X74690500Y-91855928D01*
X74665502Y-91730261D01*
X74665501Y-91730260D01*
X74665501Y-91730256D01*
X74616465Y-91611873D01*
X74616464Y-91611872D01*
X74616461Y-91611866D01*
X74561426Y-91529501D01*
X74561424Y-91529498D01*
X74545278Y-91505332D01*
X74545276Y-91505330D01*
X73314674Y-90274727D01*
X73314673Y-90274726D01*
X73261875Y-90239448D01*
X73208127Y-90203535D01*
X73089744Y-90154499D01*
X73089738Y-90154497D01*
X72964071Y-90129500D01*
X72964069Y-90129500D01*
X55845931Y-90129500D01*
X55845929Y-90129500D01*
X55720261Y-90154497D01*
X55720255Y-90154499D01*
X55601874Y-90203534D01*
X55495326Y-90274726D01*
X52914724Y-92855328D01*
X52862830Y-92932995D01*
X52843535Y-92961871D01*
X52794499Y-93080255D01*
X52794497Y-93080261D01*
X52769500Y-93205928D01*
X52769500Y-93205931D01*
X52769500Y-108584069D01*
X52769500Y-108584071D01*
X52769499Y-108584071D01*
X45300500Y-108584071D01*
X45300500Y-69861447D01*
X134144500Y-69861447D01*
X134144500Y-70093552D01*
X134174794Y-70323648D01*
X134234862Y-70547828D01*
X134323677Y-70762245D01*
X134323685Y-70762262D01*
X134439720Y-70963243D01*
X134439721Y-70963245D01*
X134581009Y-71147375D01*
X134581015Y-71147382D01*
X134745117Y-71311484D01*
X134745124Y-71311490D01*
X134929254Y-71452778D01*
X134929256Y-71452779D01*
X135130237Y-71568814D01*
X135130240Y-71568815D01*
X135130248Y-71568820D01*
X135344670Y-71657637D01*
X135568851Y-71717706D01*
X135798955Y-71748000D01*
X135798962Y-71748000D01*
X136031038Y-71748000D01*
X136031045Y-71748000D01*
X136261149Y-71717706D01*
X136485330Y-71657637D01*
X136699752Y-71568820D01*
X136900748Y-71452776D01*
X137084877Y-71311489D01*
X137248989Y-71147377D01*
X137390276Y-70963248D01*
X137439376Y-70878203D01*
X140520000Y-70878203D01*
X140520000Y-71116796D01*
X140551140Y-71353317D01*
X140551142Y-71353328D01*
X140612889Y-71583774D01*
X140612892Y-71583784D01*
X140704187Y-71804189D01*
X140704192Y-71804200D01*
X140823473Y-72010799D01*
X140823479Y-72010807D01*
X140888457Y-72095488D01*
X141563941Y-71420004D01*
X141656459Y-71558467D01*
X141779033Y-71681041D01*
X141917494Y-71773557D01*
X141242010Y-72449040D01*
X141242010Y-72449041D01*
X141326692Y-72514020D01*
X141326700Y-72514026D01*
X141533299Y-72633307D01*
X141533310Y-72633312D01*
X141753715Y-72724607D01*
X141753725Y-72724610D01*
X141984171Y-72786357D01*
X141984182Y-72786359D01*
X142220703Y-72817499D01*
X142220718Y-72817500D01*
X142459282Y-72817500D01*
X142459296Y-72817499D01*
X142695817Y-72786359D01*
X142695828Y-72786357D01*
X142926274Y-72724610D01*
X142926284Y-72724607D01*
X143146689Y-72633312D01*
X143146700Y-72633307D01*
X143353303Y-72514023D01*
X143437988Y-72449041D01*
X143437988Y-72449040D01*
X142762505Y-71773557D01*
X142900967Y-71681041D01*
X143023541Y-71558467D01*
X143116057Y-71420005D01*
X143791540Y-72095488D01*
X143791541Y-72095488D01*
X143856523Y-72010803D01*
X143975807Y-71804200D01*
X143975812Y-71804189D01*
X144067107Y-71583784D01*
X144067110Y-71583774D01*
X144128857Y-71353328D01*
X144128860Y-71353315D01*
X144151684Y-71179953D01*
X144151684Y-71179952D01*
X144159999Y-71116796D01*
X144160000Y-71116782D01*
X144160000Y-70878217D01*
X144159999Y-70878203D01*
X144128859Y-70641682D01*
X144128857Y-70641671D01*
X144067110Y-70411225D01*
X144067107Y-70411215D01*
X143975812Y-70190810D01*
X143975807Y-70190799D01*
X143856526Y-69984200D01*
X143856520Y-69984192D01*
X143791541Y-69899510D01*
X143791540Y-69899510D01*
X143116057Y-70574993D01*
X143023541Y-70436533D01*
X142900967Y-70313959D01*
X142762503Y-70221441D01*
X143354290Y-69629655D01*
X144970000Y-69629655D01*
X144970000Y-70747500D01*
X145942488Y-70747500D01*
X145910000Y-70910828D01*
X145910000Y-71084172D01*
X145942488Y-71247500D01*
X144970000Y-71247500D01*
X144970000Y-72365344D01*
X144976401Y-72424872D01*
X144976403Y-72424879D01*
X145026645Y-72559586D01*
X145026649Y-72559593D01*
X145112809Y-72674687D01*
X145112812Y-72674690D01*
X145227906Y-72760850D01*
X145227913Y-72760854D01*
X145362620Y-72811096D01*
X145362627Y-72811098D01*
X145422155Y-72817499D01*
X145422172Y-72817500D01*
X146540000Y-72817500D01*
X146540000Y-71845012D01*
X146703328Y-71877500D01*
X146876672Y-71877500D01*
X147040000Y-71845012D01*
X147040000Y-72817500D01*
X148157828Y-72817500D01*
X148157844Y-72817499D01*
X148217372Y-72811098D01*
X148217379Y-72811096D01*
X148352086Y-72760854D01*
X148352093Y-72760850D01*
X148467187Y-72674690D01*
X148467190Y-72674687D01*
X148553350Y-72559593D01*
X148553354Y-72559586D01*
X148603596Y-72424879D01*
X148603598Y-72424872D01*
X148609999Y-72365344D01*
X148610000Y-72365327D01*
X148610000Y-71247500D01*
X147637512Y-71247500D01*
X147670000Y-71084172D01*
X147670000Y-70910828D01*
X147637512Y-70747500D01*
X148610000Y-70747500D01*
X148610000Y-69861447D01*
X151444500Y-69861447D01*
X151444500Y-70093552D01*
X151474794Y-70323648D01*
X151534862Y-70547828D01*
X151623677Y-70762245D01*
X151623685Y-70762262D01*
X151739720Y-70963243D01*
X151739721Y-70963245D01*
X151881009Y-71147375D01*
X151881015Y-71147382D01*
X152045117Y-71311484D01*
X152045124Y-71311490D01*
X152229254Y-71452778D01*
X152229256Y-71452779D01*
X152430237Y-71568814D01*
X152430240Y-71568815D01*
X152430248Y-71568820D01*
X152644670Y-71657637D01*
X152868851Y-71717706D01*
X153098955Y-71748000D01*
X153098962Y-71748000D01*
X153331038Y-71748000D01*
X153331045Y-71748000D01*
X153561149Y-71717706D01*
X153785330Y-71657637D01*
X153999752Y-71568820D01*
X154200748Y-71452776D01*
X154384877Y-71311489D01*
X154548989Y-71147377D01*
X154690276Y-70963248D01*
X154806320Y-70762252D01*
X154895137Y-70547830D01*
X154955206Y-70323649D01*
X154985500Y-70093545D01*
X154985500Y-69861455D01*
X154955206Y-69631351D01*
X154895137Y-69407170D01*
X154806320Y-69192748D01*
X154806314Y-69192737D01*
X154690279Y-68991756D01*
X154690278Y-68991754D01*
X154548990Y-68807624D01*
X154548984Y-68807617D01*
X154384882Y-68643515D01*
X154384875Y-68643509D01*
X154200745Y-68502221D01*
X154200743Y-68502220D01*
X153999762Y-68386185D01*
X153999754Y-68386181D01*
X153999752Y-68386180D01*
X153785330Y-68297363D01*
X153785331Y-68297363D01*
X153785328Y-68297362D01*
X153643203Y-68259280D01*
X153561149Y-68237294D01*
X153532386Y-68233507D01*
X153331052Y-68207000D01*
X153331045Y-68207000D01*
X153098955Y-68207000D01*
X153098947Y-68207000D01*
X152868851Y-68237294D01*
X152644671Y-68297362D01*
X152430254Y-68386177D01*
X152430237Y-68386185D01*
X152229256Y-68502220D01*
X152229254Y-68502221D01*
X152045124Y-68643509D01*
X152045117Y-68643515D01*
X151881015Y-68807617D01*
X151881009Y-68807624D01*
X151739721Y-68991754D01*
X151739720Y-68991756D01*
X151623685Y-69192737D01*
X151623677Y-69192754D01*
X151534862Y-69407171D01*
X151474794Y-69631351D01*
X151444500Y-69861447D01*
X148610000Y-69861447D01*
X148610000Y-69629672D01*
X148609999Y-69629655D01*
X148603598Y-69570127D01*
X148603596Y-69570120D01*
X148553354Y-69435413D01*
X148553350Y-69435406D01*
X148467190Y-69320312D01*
X148467187Y-69320309D01*
X148352093Y-69234149D01*
X148352086Y-69234145D01*
X148217379Y-69183903D01*
X148217372Y-69183901D01*
X148157844Y-69177500D01*
X147040000Y-69177500D01*
X147040000Y-70149987D01*
X146876672Y-70117500D01*
X146703328Y-70117500D01*
X146540000Y-70149987D01*
X146540000Y-69177500D01*
X145422155Y-69177500D01*
X145362627Y-69183901D01*
X145362620Y-69183903D01*
X145227913Y-69234145D01*
X145227906Y-69234149D01*
X145112812Y-69320309D01*
X145112809Y-69320312D01*
X145026649Y-69435406D01*
X145026645Y-69435413D01*
X144976403Y-69570120D01*
X144976401Y-69570127D01*
X144970000Y-69629655D01*
X143354290Y-69629655D01*
X143437988Y-69545957D01*
X143353307Y-69480979D01*
X143353299Y-69480973D01*
X143146700Y-69361692D01*
X143146689Y-69361687D01*
X142926284Y-69270392D01*
X142926274Y-69270389D01*
X142695828Y-69208642D01*
X142695817Y-69208640D01*
X142459296Y-69177500D01*
X142220703Y-69177500D01*
X141984182Y-69208640D01*
X141984171Y-69208642D01*
X141753725Y-69270389D01*
X141753715Y-69270392D01*
X141533310Y-69361687D01*
X141533306Y-69361689D01*
X141326685Y-69480983D01*
X141242010Y-69545956D01*
X141242010Y-69545957D01*
X141917494Y-70221441D01*
X141779033Y-70313959D01*
X141656459Y-70436533D01*
X141563941Y-70574994D01*
X140888457Y-69899510D01*
X140888456Y-69899510D01*
X140823483Y-69984185D01*
X140704189Y-70190806D01*
X140704187Y-70190810D01*
X140612892Y-70411215D01*
X140612889Y-70411225D01*
X140551142Y-70641671D01*
X140551140Y-70641682D01*
X140520000Y-70878203D01*
X137439376Y-70878203D01*
X137477511Y-70812152D01*
X137486296Y-70796933D01*
X137506320Y-70762252D01*
X137595137Y-70547830D01*
X137655206Y-70323649D01*
X137685500Y-70093545D01*
X137685500Y-69861455D01*
X137655206Y-69631351D01*
X137595137Y-69407170D01*
X137506320Y-69192748D01*
X137506314Y-69192737D01*
X137390279Y-68991756D01*
X137390278Y-68991754D01*
X137248990Y-68807624D01*
X137248984Y-68807617D01*
X137084882Y-68643515D01*
X137084875Y-68643509D01*
X136900745Y-68502221D01*
X136900743Y-68502220D01*
X136699762Y-68386185D01*
X136699754Y-68386181D01*
X136699752Y-68386180D01*
X136485330Y-68297363D01*
X136485331Y-68297363D01*
X136485328Y-68297362D01*
X136343203Y-68259280D01*
X136261149Y-68237294D01*
X136232386Y-68233507D01*
X136031052Y-68207000D01*
X136031045Y-68207000D01*
X135798955Y-68207000D01*
X135798947Y-68207000D01*
X135568851Y-68237294D01*
X135344671Y-68297362D01*
X135130254Y-68386177D01*
X135130237Y-68386185D01*
X134929256Y-68502220D01*
X134929254Y-68502221D01*
X134745124Y-68643509D01*
X134745117Y-68643515D01*
X134581015Y-68807617D01*
X134581009Y-68807624D01*
X134439721Y-68991754D01*
X134439720Y-68991756D01*
X134323685Y-69192737D01*
X134323677Y-69192754D01*
X134234862Y-69407171D01*
X134174794Y-69631351D01*
X134144500Y-69861447D01*
X45300500Y-69861447D01*
X45300500Y-67217135D01*
X87829500Y-67217135D01*
X87829500Y-68512870D01*
X87829501Y-68512876D01*
X87835908Y-68572483D01*
X87886202Y-68707328D01*
X87886206Y-68707335D01*
X87972452Y-68822544D01*
X87972455Y-68822547D01*
X88087664Y-68908793D01*
X88087671Y-68908797D01*
X88222517Y-68959091D01*
X88222516Y-68959091D01*
X88229444Y-68959835D01*
X88282127Y-68965500D01*
X89577872Y-68965499D01*
X89637483Y-68959091D01*
X89772331Y-68908796D01*
X89887546Y-68822546D01*
X89973796Y-68707331D01*
X89973797Y-68707326D01*
X89978047Y-68699546D01*
X89980337Y-68700796D01*
X90014017Y-68655791D01*
X90079478Y-68631364D01*
X90147753Y-68646206D01*
X90176024Y-68667366D01*
X90213072Y-68704414D01*
X90353212Y-68806232D01*
X90507555Y-68884873D01*
X90672299Y-68938402D01*
X90843389Y-68965500D01*
X90843390Y-68965500D01*
X91016610Y-68965500D01*
X91016611Y-68965500D01*
X91187701Y-68938402D01*
X91352445Y-68884873D01*
X91506788Y-68806232D01*
X91646928Y-68704414D01*
X91769414Y-68581928D01*
X91871232Y-68441788D01*
X91949873Y-68287445D01*
X92003402Y-68122701D01*
X92030500Y-67951611D01*
X92030500Y-67778389D01*
X92003402Y-67607299D01*
X91949873Y-67442555D01*
X91871232Y-67288212D01*
X91769414Y-67148072D01*
X91646928Y-67025586D01*
X91506788Y-66923768D01*
X91352445Y-66845127D01*
X91187701Y-66791598D01*
X91187699Y-66791597D01*
X91187698Y-66791597D01*
X91056271Y-66770781D01*
X91016611Y-66764500D01*
X90843389Y-66764500D01*
X90803728Y-66770781D01*
X90672302Y-66791597D01*
X90507552Y-66845128D01*
X90353211Y-66923768D01*
X90273256Y-66981859D01*
X90213072Y-67025586D01*
X90213070Y-67025588D01*
X90213068Y-67025589D01*
X90176023Y-67062634D01*
X90114700Y-67096119D01*
X90045008Y-67091133D01*
X89989075Y-67049261D01*
X89978632Y-67030134D01*
X89978047Y-67030454D01*
X89973793Y-67022664D01*
X89887547Y-66907455D01*
X89887544Y-66907452D01*
X89772335Y-66821206D01*
X89772328Y-66821202D01*
X89637482Y-66770908D01*
X89637483Y-66770908D01*
X89577883Y-66764501D01*
X89577881Y-66764500D01*
X89577873Y-66764500D01*
X89577864Y-66764500D01*
X88282129Y-66764500D01*
X88282123Y-66764501D01*
X88222516Y-66770908D01*
X88087671Y-66821202D01*
X88087664Y-66821206D01*
X87972455Y-66907452D01*
X87972452Y-66907455D01*
X87886206Y-67022664D01*
X87886202Y-67022671D01*
X87835908Y-67157517D01*
X87829501Y-67217116D01*
X87829500Y-67217135D01*
X45300500Y-67217135D01*
X45300500Y-64528184D01*
X140519500Y-64528184D01*
X140519500Y-64766815D01*
X140519501Y-64766832D01*
X140550648Y-65003420D01*
X140612415Y-65233936D01*
X140703734Y-65454402D01*
X140703740Y-65454414D01*
X140823062Y-65661086D01*
X140823064Y-65661089D01*
X140823065Y-65661090D01*
X140968337Y-65850412D01*
X140968343Y-65850419D01*
X141137080Y-66019156D01*
X141137086Y-66019161D01*
X141326414Y-66164438D01*
X141533086Y-66283760D01*
X141533091Y-66283762D01*
X141533097Y-66283765D01*
X141628109Y-66323120D01*
X141753564Y-66375085D01*
X141984076Y-66436851D01*
X142220678Y-66468000D01*
X142220685Y-66468000D01*
X142459315Y-66468000D01*
X142459322Y-66468000D01*
X142695924Y-66436851D01*
X142926436Y-66375085D01*
X143146914Y-66283760D01*
X143353586Y-66164438D01*
X143542914Y-66019161D01*
X143711661Y-65850414D01*
X143856938Y-65661086D01*
X143976260Y-65454414D01*
X144067585Y-65233936D01*
X144129351Y-65003424D01*
X144160500Y-64766822D01*
X144160500Y-64528184D01*
X144969500Y-64528184D01*
X144969500Y-64766815D01*
X144969501Y-64766832D01*
X145000648Y-65003420D01*
X145062415Y-65233936D01*
X145153734Y-65454402D01*
X145153740Y-65454414D01*
X145273062Y-65661086D01*
X145273064Y-65661089D01*
X145273065Y-65661090D01*
X145418337Y-65850412D01*
X145418343Y-65850419D01*
X145587080Y-66019156D01*
X145587086Y-66019161D01*
X145776414Y-66164438D01*
X145983086Y-66283760D01*
X145983091Y-66283762D01*
X145983097Y-66283765D01*
X146078109Y-66323120D01*
X146203564Y-66375085D01*
X146434076Y-66436851D01*
X146670678Y-66468000D01*
X146670685Y-66468000D01*
X146909315Y-66468000D01*
X146909322Y-66468000D01*
X147145924Y-66436851D01*
X147376436Y-66375085D01*
X147596914Y-66283760D01*
X147803586Y-66164438D01*
X147992914Y-66019161D01*
X148161661Y-65850414D01*
X148306938Y-65661086D01*
X148426260Y-65454414D01*
X148517585Y-65233936D01*
X148579351Y-65003424D01*
X148610500Y-64766822D01*
X148610500Y-64528178D01*
X148579351Y-64291576D01*
X148517585Y-64061064D01*
X148426260Y-63840586D01*
X148306938Y-63633914D01*
X148161661Y-63444586D01*
X148161656Y-63444580D01*
X147992919Y-63275843D01*
X147992912Y-63275837D01*
X147803590Y-63130565D01*
X147803589Y-63130564D01*
X147803586Y-63130562D01*
X147596914Y-63011240D01*
X147596902Y-63011234D01*
X147376436Y-62919915D01*
X147145920Y-62858148D01*
X146909332Y-62827001D01*
X146909327Y-62827000D01*
X146909322Y-62827000D01*
X146670678Y-62827000D01*
X146670672Y-62827000D01*
X146670667Y-62827001D01*
X146434079Y-62858148D01*
X146203563Y-62919915D01*
X145983097Y-63011234D01*
X145983083Y-63011241D01*
X145776409Y-63130565D01*
X145587087Y-63275837D01*
X145587080Y-63275843D01*
X145418343Y-63444580D01*
X145418337Y-63444587D01*
X145273065Y-63633909D01*
X145153741Y-63840583D01*
X145153734Y-63840597D01*
X145062415Y-64061063D01*
X145000648Y-64291579D01*
X144969501Y-64528167D01*
X144969500Y-64528184D01*
X144160500Y-64528184D01*
X144160500Y-64528178D01*
X144129351Y-64291576D01*
X144067585Y-64061064D01*
X143976260Y-63840586D01*
X143856938Y-63633914D01*
X143711661Y-63444586D01*
X143711656Y-63444580D01*
X143542919Y-63275843D01*
X143542912Y-63275837D01*
X143353590Y-63130565D01*
X143353589Y-63130564D01*
X143353586Y-63130562D01*
X143146914Y-63011240D01*
X143146902Y-63011234D01*
X142926436Y-62919915D01*
X142695920Y-62858148D01*
X142459332Y-62827001D01*
X142459327Y-62827000D01*
X142459322Y-62827000D01*
X142220678Y-62827000D01*
X142220672Y-62827000D01*
X142220667Y-62827001D01*
X141984079Y-62858148D01*
X141753563Y-62919915D01*
X141533097Y-63011234D01*
X141533083Y-63011241D01*
X141326409Y-63130565D01*
X141137087Y-63275837D01*
X141137080Y-63275843D01*
X140968343Y-63444580D01*
X140968337Y-63444587D01*
X140823065Y-63633909D01*
X140703741Y-63840583D01*
X140703734Y-63840597D01*
X140612415Y-64061063D01*
X140550648Y-64291579D01*
X140519501Y-64528167D01*
X140519500Y-64528184D01*
X45300500Y-64528184D01*
X45300500Y-58057837D01*
X65093750Y-58057837D01*
X65093750Y-58286162D01*
X65129465Y-58511660D01*
X65200020Y-58728803D01*
X65284014Y-58893649D01*
X65303671Y-58932228D01*
X65437871Y-59116937D01*
X65599313Y-59278379D01*
X65784022Y-59412579D01*
X65880134Y-59461550D01*
X65987446Y-59516229D01*
X65987448Y-59516229D01*
X65987451Y-59516231D01*
X66039815Y-59533245D01*
X66204589Y-59586784D01*
X66430088Y-59622500D01*
X66430093Y-59622500D01*
X66658412Y-59622500D01*
X66883910Y-59586784D01*
X66958023Y-59562703D01*
X67101049Y-59516231D01*
X67304478Y-59412579D01*
X67489187Y-59278379D01*
X67650629Y-59116937D01*
X67784829Y-58932228D01*
X67888481Y-58728799D01*
X67959034Y-58511660D01*
X67971737Y-58431455D01*
X67994750Y-58286162D01*
X67994750Y-58057837D01*
X67959034Y-57832339D01*
X67906622Y-57671033D01*
X67888481Y-57615201D01*
X67888479Y-57615198D01*
X67888479Y-57615196D01*
X67784828Y-57411771D01*
X67766665Y-57386772D01*
X67650629Y-57227063D01*
X67489187Y-57065621D01*
X67304478Y-56931421D01*
X67245376Y-56901307D01*
X67101053Y-56827770D01*
X66883910Y-56757215D01*
X66658412Y-56721500D01*
X66658407Y-56721500D01*
X66430093Y-56721500D01*
X66430088Y-56721500D01*
X66204589Y-56757215D01*
X65987446Y-56827770D01*
X65784021Y-56931421D01*
X65599311Y-57065622D01*
X65437872Y-57227061D01*
X65303671Y-57411771D01*
X65200020Y-57615196D01*
X65129465Y-57832339D01*
X65093750Y-58057837D01*
X45300500Y-58057837D01*
X45300500Y-53875000D01*
X46599999Y-53875000D01*
X46724999Y-54949999D01*
X47224998Y-56174998D01*
X47224999Y-56174999D01*
X47225000Y-56175000D01*
X48225000Y-57200000D01*
X49525000Y-57675000D01*
X50300000Y-57785275D01*
X50750000Y-57750000D01*
X52200000Y-57300000D01*
X53150000Y-56425000D01*
X53237079Y-56282924D01*
X70761250Y-56282924D01*
X70761250Y-56521076D01*
X70783247Y-56659956D01*
X70798506Y-56756296D01*
X70872096Y-56982787D01*
X70872097Y-56982790D01*
X70967345Y-57169723D01*
X70980217Y-57194985D01*
X71120199Y-57387653D01*
X71288597Y-57556051D01*
X71481265Y-57696033D01*
X71585340Y-57749061D01*
X71693459Y-57804152D01*
X71693462Y-57804153D01*
X71806707Y-57840948D01*
X71919955Y-57877744D01*
X72155174Y-57915000D01*
X72155175Y-57915000D01*
X72393326Y-57915000D01*
X72398177Y-57914618D01*
X72398377Y-57917168D01*
X72457164Y-57924363D01*
X72510917Y-57968999D01*
X72532006Y-58035610D01*
X72531183Y-58048024D01*
X72531632Y-58048060D01*
X72531250Y-58052917D01*
X72531250Y-58291083D01*
X72531632Y-58295940D01*
X72529281Y-58296124D01*
X72521485Y-58355829D01*
X72476418Y-58409221D01*
X72409639Y-58429773D01*
X72398223Y-58428956D01*
X72398190Y-58429382D01*
X72393333Y-58429000D01*
X72393326Y-58429000D01*
X72155174Y-58429000D01*
X72077795Y-58441256D01*
X71919953Y-58466256D01*
X71693462Y-58539846D01*
X71693459Y-58539847D01*
X71481264Y-58647967D01*
X71371340Y-58727832D01*
X71288597Y-58787949D01*
X71288595Y-58787951D01*
X71288594Y-58787951D01*
X71120201Y-58956344D01*
X71120201Y-58956345D01*
X71120199Y-58956347D01*
X71060082Y-59039090D01*
X70980217Y-59149014D01*
X70872097Y-59361209D01*
X70872096Y-59361212D01*
X70798506Y-59587703D01*
X70779904Y-59705150D01*
X70762021Y-59818060D01*
X70761250Y-59822925D01*
X70761250Y-60061074D01*
X70798506Y-60296296D01*
X70872096Y-60522787D01*
X70872097Y-60522790D01*
X70967479Y-60709985D01*
X70980217Y-60734985D01*
X71120199Y-60927653D01*
X71288597Y-61096051D01*
X71481265Y-61236033D01*
X71585340Y-61289061D01*
X71693459Y-61344152D01*
X71693462Y-61344153D01*
X71806707Y-61380948D01*
X71919955Y-61417744D01*
X72155174Y-61455000D01*
X72155175Y-61455000D01*
X72393325Y-61455000D01*
X72393326Y-61455000D01*
X72628545Y-61417744D01*
X72855040Y-61344152D01*
X73067235Y-61236033D01*
X73259903Y-61096051D01*
X73428301Y-60927653D01*
X73568283Y-60734985D01*
X73676402Y-60522790D01*
X73749994Y-60296295D01*
X73787250Y-60061076D01*
X73787250Y-59822924D01*
X73787250Y-59822923D01*
X73786868Y-59818073D01*
X73789352Y-59817877D01*
X73796742Y-59758787D01*
X73841518Y-59705150D01*
X73908185Y-59684236D01*
X73920284Y-59685101D01*
X73920323Y-59684618D01*
X73925174Y-59685000D01*
X74163326Y-59685000D01*
X74168177Y-59684618D01*
X74168377Y-59687168D01*
X74227164Y-59694363D01*
X74280917Y-59738999D01*
X74302006Y-59805610D01*
X74301183Y-59818024D01*
X74301632Y-59818060D01*
X74301250Y-59822917D01*
X74301250Y-60061074D01*
X74338506Y-60296296D01*
X74412096Y-60522787D01*
X74412097Y-60522790D01*
X74507479Y-60709985D01*
X74520217Y-60734985D01*
X74660199Y-60927653D01*
X74828597Y-61096051D01*
X75021265Y-61236033D01*
X75125340Y-61289061D01*
X75233459Y-61344152D01*
X75233462Y-61344153D01*
X75346707Y-61380948D01*
X75459955Y-61417744D01*
X75695174Y-61455000D01*
X75695175Y-61455000D01*
X75933325Y-61455000D01*
X75933326Y-61455000D01*
X76168545Y-61417744D01*
X76395040Y-61344152D01*
X76607235Y-61236033D01*
X76799903Y-61096051D01*
X76968301Y-60927653D01*
X77108283Y-60734985D01*
X77216402Y-60522790D01*
X77289994Y-60296295D01*
X77327250Y-60061076D01*
X77327250Y-59822924D01*
X77323290Y-59797925D01*
X77323290Y-59797924D01*
X102992000Y-59797924D01*
X102992000Y-60036076D01*
X103008274Y-60138822D01*
X103029256Y-60271296D01*
X103102846Y-60497787D01*
X103102847Y-60497790D01*
X103210967Y-60709985D01*
X103350949Y-60902653D01*
X103519347Y-61071051D01*
X103712015Y-61211033D01*
X103816090Y-61264061D01*
X103924209Y-61319152D01*
X103924212Y-61319153D01*
X104001156Y-61344153D01*
X104150705Y-61392744D01*
X104385924Y-61430000D01*
X104385925Y-61430000D01*
X104624075Y-61430000D01*
X104624076Y-61430000D01*
X104859295Y-61392744D01*
X105085790Y-61319152D01*
X105297985Y-61211033D01*
X105490653Y-61071051D01*
X105659051Y-60902653D01*
X105799033Y-60709985D01*
X105907152Y-60497790D01*
X105980744Y-60271295D01*
X106018000Y-60036076D01*
X106018000Y-59797924D01*
X106018000Y-59797923D01*
X106017618Y-59793073D01*
X106020102Y-59792877D01*
X106027492Y-59733787D01*
X106072268Y-59680150D01*
X106138935Y-59659236D01*
X106151034Y-59660101D01*
X106151073Y-59659618D01*
X106155924Y-59660000D01*
X106394076Y-59660000D01*
X106398927Y-59659618D01*
X106399127Y-59662168D01*
X106457914Y-59669363D01*
X106511667Y-59713999D01*
X106532756Y-59780610D01*
X106531933Y-59793024D01*
X106532382Y-59793060D01*
X106532000Y-59797917D01*
X106532000Y-59797923D01*
X106532000Y-59797924D01*
X106532000Y-60036076D01*
X106548274Y-60138822D01*
X106569256Y-60271296D01*
X106642846Y-60497787D01*
X106642847Y-60497790D01*
X106750967Y-60709985D01*
X106890949Y-60902653D01*
X107059347Y-61071051D01*
X107252015Y-61211033D01*
X107356090Y-61264061D01*
X107464209Y-61319152D01*
X107464212Y-61319153D01*
X107541156Y-61344153D01*
X107690705Y-61392744D01*
X107925924Y-61430000D01*
X107925925Y-61430000D01*
X108164075Y-61430000D01*
X108164076Y-61430000D01*
X108399295Y-61392744D01*
X108625790Y-61319152D01*
X108837985Y-61211033D01*
X109030653Y-61071051D01*
X109199051Y-60902653D01*
X109339033Y-60709985D01*
X109447152Y-60497790D01*
X109520744Y-60271295D01*
X109558000Y-60036076D01*
X109558000Y-59797924D01*
X109520744Y-59562705D01*
X109463843Y-59387579D01*
X109447153Y-59336212D01*
X109447152Y-59336209D01*
X109351771Y-59149015D01*
X109339033Y-59124015D01*
X109199051Y-58931347D01*
X109030653Y-58762949D01*
X108837985Y-58622967D01*
X108625790Y-58514847D01*
X108625787Y-58514846D01*
X108399296Y-58441256D01*
X108197039Y-58409221D01*
X108164076Y-58404000D01*
X107925924Y-58404000D01*
X107925917Y-58404000D01*
X107921060Y-58404382D01*
X107920880Y-58402096D01*
X107860886Y-58394110D01*
X107807607Y-58348910D01*
X107787222Y-58282080D01*
X107788075Y-58270963D01*
X107787618Y-58270927D01*
X107788000Y-58266076D01*
X107788000Y-58032837D01*
X112324500Y-58032837D01*
X112324500Y-58261162D01*
X112360215Y-58486660D01*
X112430770Y-58703803D01*
X112460907Y-58762949D01*
X112534421Y-58907228D01*
X112668621Y-59091937D01*
X112830063Y-59253379D01*
X113014772Y-59387579D01*
X113110884Y-59436550D01*
X113218196Y-59491229D01*
X113218198Y-59491229D01*
X113218201Y-59491231D01*
X113295137Y-59516229D01*
X113435339Y-59561784D01*
X113660838Y-59597500D01*
X113660843Y-59597500D01*
X113889162Y-59597500D01*
X114114660Y-59561784D01*
X114202484Y-59533248D01*
X114331799Y-59491231D01*
X114535228Y-59387579D01*
X114719937Y-59253379D01*
X114881379Y-59091937D01*
X115015579Y-58907228D01*
X115119231Y-58703799D01*
X115189784Y-58486660D01*
X115198529Y-58431447D01*
X142794500Y-58431447D01*
X142794500Y-58663552D01*
X142807587Y-58762951D01*
X142824794Y-58893649D01*
X142834894Y-58931344D01*
X142884862Y-59117828D01*
X142973677Y-59332245D01*
X142973685Y-59332262D01*
X143089720Y-59533243D01*
X143089721Y-59533245D01*
X143231009Y-59717375D01*
X143231015Y-59717382D01*
X143395117Y-59881484D01*
X143395124Y-59881490D01*
X143579254Y-60022778D01*
X143579256Y-60022779D01*
X143780237Y-60138814D01*
X143780240Y-60138815D01*
X143780248Y-60138820D01*
X143994670Y-60227637D01*
X144218851Y-60287706D01*
X144448955Y-60318000D01*
X144448962Y-60318000D01*
X144681038Y-60318000D01*
X144681045Y-60318000D01*
X144911149Y-60287706D01*
X145135330Y-60227637D01*
X145349752Y-60138820D01*
X145550748Y-60022776D01*
X145734877Y-59881489D01*
X145898989Y-59717377D01*
X146040276Y-59533248D01*
X146156320Y-59332252D01*
X146245137Y-59117830D01*
X146305206Y-58893649D01*
X146335500Y-58663545D01*
X146335500Y-58431455D01*
X146305206Y-58201351D01*
X146245137Y-57977170D01*
X146156320Y-57762748D01*
X146148960Y-57750000D01*
X146040279Y-57561756D01*
X146040278Y-57561754D01*
X145898990Y-57377624D01*
X145898984Y-57377617D01*
X145734882Y-57213515D01*
X145734875Y-57213509D01*
X145550745Y-57072221D01*
X145550743Y-57072220D01*
X145349762Y-56956185D01*
X145349754Y-56956181D01*
X145349752Y-56956180D01*
X145217278Y-56901307D01*
X145135328Y-56867362D01*
X144987563Y-56827769D01*
X144911149Y-56807294D01*
X144876786Y-56802770D01*
X144681052Y-56777000D01*
X144681045Y-56777000D01*
X144448955Y-56777000D01*
X144448947Y-56777000D01*
X144218851Y-56807294D01*
X143994671Y-56867362D01*
X143780254Y-56956177D01*
X143780237Y-56956185D01*
X143579256Y-57072220D01*
X143579254Y-57072221D01*
X143395124Y-57213509D01*
X143395117Y-57213515D01*
X143231015Y-57377617D01*
X143231009Y-57377624D01*
X143089721Y-57561754D01*
X143089720Y-57561756D01*
X142973685Y-57762737D01*
X142973677Y-57762754D01*
X142884862Y-57977171D01*
X142824794Y-58201351D01*
X142794500Y-58431447D01*
X115198529Y-58431447D01*
X115198856Y-58429382D01*
X115202243Y-58407998D01*
X115225500Y-58261162D01*
X115225500Y-58032837D01*
X115189784Y-57807339D01*
X115145159Y-57670000D01*
X115119231Y-57590201D01*
X115119229Y-57590198D01*
X115119229Y-57590196D01*
X115028317Y-57411772D01*
X115015579Y-57386772D01*
X114881379Y-57202063D01*
X114719937Y-57040621D01*
X114535228Y-56906421D01*
X114479384Y-56877967D01*
X114331803Y-56802770D01*
X114114660Y-56732215D01*
X113889162Y-56696500D01*
X113889157Y-56696500D01*
X113660843Y-56696500D01*
X113660838Y-56696500D01*
X113435339Y-56732215D01*
X113218196Y-56802770D01*
X113014771Y-56906421D01*
X112830061Y-57040622D01*
X112668622Y-57202061D01*
X112534421Y-57386771D01*
X112430770Y-57590196D01*
X112360215Y-57807339D01*
X112324500Y-58032837D01*
X107788000Y-58032837D01*
X107788000Y-58031268D01*
X107788000Y-58027924D01*
X107787732Y-58026232D01*
X107787390Y-58019802D01*
X107793955Y-57992068D01*
X107797492Y-57963787D01*
X107801900Y-57958506D01*
X107803485Y-57951812D01*
X107824003Y-57932029D01*
X107842268Y-57910150D01*
X107848831Y-57908090D01*
X107853784Y-57903316D01*
X107881742Y-57897766D01*
X107908935Y-57889236D01*
X107920539Y-57890065D01*
X107921045Y-57889965D01*
X107921073Y-57889618D01*
X107922306Y-57889715D01*
X107922317Y-57889713D01*
X107922326Y-57889716D01*
X107925924Y-57890000D01*
X108164075Y-57890000D01*
X108164076Y-57890000D01*
X108399295Y-57852744D01*
X108625790Y-57779152D01*
X108837985Y-57671033D01*
X109030653Y-57531051D01*
X109199051Y-57362653D01*
X109339033Y-57169985D01*
X109447152Y-56957790D01*
X109447674Y-56956185D01*
X109476533Y-56867363D01*
X109520744Y-56731295D01*
X109558000Y-56496076D01*
X109558000Y-56257924D01*
X109520744Y-56022705D01*
X109463817Y-55847500D01*
X109447153Y-55796212D01*
X109447152Y-55796209D01*
X109374150Y-55652936D01*
X109339033Y-55584015D01*
X109199051Y-55391347D01*
X109030653Y-55222949D01*
X108837985Y-55082967D01*
X108831875Y-55079854D01*
X108625790Y-54974847D01*
X108625787Y-54974846D01*
X108399296Y-54901256D01*
X108281685Y-54882628D01*
X108164076Y-54864000D01*
X107925924Y-54864000D01*
X107847517Y-54876418D01*
X107690703Y-54901256D01*
X107464212Y-54974846D01*
X107464209Y-54974847D01*
X107252014Y-55082967D01*
X107142090Y-55162832D01*
X107059347Y-55222949D01*
X107059345Y-55222951D01*
X107059344Y-55222951D01*
X106890951Y-55391344D01*
X106890951Y-55391345D01*
X106890949Y-55391347D01*
X106859662Y-55434410D01*
X106750967Y-55584014D01*
X106642847Y-55796209D01*
X106642846Y-55796212D01*
X106569256Y-56022703D01*
X106532000Y-56257925D01*
X106532000Y-56496083D01*
X106532382Y-56500940D01*
X106530031Y-56501124D01*
X106522235Y-56560829D01*
X106477168Y-56614221D01*
X106410389Y-56634773D01*
X106398973Y-56633956D01*
X106398940Y-56634382D01*
X106394083Y-56634000D01*
X106394076Y-56634000D01*
X106155924Y-56634000D01*
X106151073Y-56634382D01*
X106150899Y-56632177D01*
X106090683Y-56624333D01*
X106037277Y-56579281D01*
X106016707Y-56512508D01*
X106017549Y-56500921D01*
X106017118Y-56500887D01*
X106017500Y-56496036D01*
X106017500Y-56257964D01*
X105980256Y-56022820D01*
X105906690Y-55796403D01*
X105906689Y-55796400D01*
X105798609Y-55584284D01*
X105798601Y-55584271D01*
X105736608Y-55498945D01*
X105736607Y-55498944D01*
X105125175Y-56110377D01*
X105103177Y-56057268D01*
X105029307Y-55946713D01*
X104935287Y-55852693D01*
X104824732Y-55778823D01*
X104771622Y-55756824D01*
X105383054Y-55145392D01*
X105383053Y-55145391D01*
X105297723Y-55083394D01*
X105085599Y-54975310D01*
X105085596Y-54975309D01*
X104859179Y-54901743D01*
X104624035Y-54864500D01*
X104385965Y-54864500D01*
X104150820Y-54901743D01*
X103924403Y-54975309D01*
X103924400Y-54975310D01*
X103712273Y-55083396D01*
X103626945Y-55145390D01*
X103626944Y-55145391D01*
X104238377Y-55756824D01*
X104185268Y-55778823D01*
X104074713Y-55852693D01*
X103980693Y-55946713D01*
X103906823Y-56057268D01*
X103884824Y-56110377D01*
X103273391Y-55498944D01*
X103273390Y-55498945D01*
X103211396Y-55584273D01*
X103103310Y-55796400D01*
X103103309Y-55796403D01*
X103029743Y-56022820D01*
X102992500Y-56257964D01*
X102992500Y-56496035D01*
X103029743Y-56731179D01*
X103103309Y-56957596D01*
X103103310Y-56957599D01*
X103211394Y-57169723D01*
X103273391Y-57255053D01*
X103273392Y-57255054D01*
X103884824Y-56643621D01*
X103906823Y-56696732D01*
X103980693Y-56807287D01*
X104074713Y-56901307D01*
X104185268Y-56975177D01*
X104238377Y-56997175D01*
X103626944Y-57608607D01*
X103626945Y-57608608D01*
X103712271Y-57670601D01*
X103712284Y-57670609D01*
X103924400Y-57778689D01*
X103924403Y-57778690D01*
X104150820Y-57852256D01*
X104385965Y-57889500D01*
X104624036Y-57889500D01*
X104628887Y-57889118D01*
X104629074Y-57891499D01*
X104688601Y-57899107D01*
X104742116Y-57944028D01*
X104762851Y-58010750D01*
X104761986Y-58023041D01*
X104762382Y-58023073D01*
X104762000Y-58027923D01*
X104762000Y-58266083D01*
X104762382Y-58270940D01*
X104760031Y-58271124D01*
X104752235Y-58330829D01*
X104707168Y-58384221D01*
X104640389Y-58404773D01*
X104628973Y-58403956D01*
X104628940Y-58404382D01*
X104624083Y-58404000D01*
X104624076Y-58404000D01*
X104385924Y-58404000D01*
X104352961Y-58409221D01*
X104150703Y-58441256D01*
X103924212Y-58514846D01*
X103924209Y-58514847D01*
X103712014Y-58622967D01*
X103602090Y-58702832D01*
X103519347Y-58762949D01*
X103519345Y-58762951D01*
X103519344Y-58762951D01*
X103350951Y-58931344D01*
X103350951Y-58931345D01*
X103350949Y-58931347D01*
X103290832Y-59014090D01*
X103210967Y-59124014D01*
X103102847Y-59336209D01*
X103102846Y-59336212D01*
X103029256Y-59562703D01*
X103010654Y-59680150D01*
X102992000Y-59797924D01*
X77323290Y-59797924D01*
X77310533Y-59717382D01*
X77289994Y-59587705D01*
X77233093Y-59412579D01*
X77216403Y-59361212D01*
X77216402Y-59361209D01*
X77108282Y-59149014D01*
X77090119Y-59124015D01*
X76968301Y-58956347D01*
X76799903Y-58787949D01*
X76607235Y-58647967D01*
X76558170Y-58622967D01*
X76395040Y-58539847D01*
X76395037Y-58539846D01*
X76168546Y-58466256D01*
X76010705Y-58441256D01*
X75933326Y-58429000D01*
X75695174Y-58429000D01*
X75695167Y-58429000D01*
X75690310Y-58429382D01*
X75690130Y-58427096D01*
X75630136Y-58419110D01*
X75576857Y-58373910D01*
X75556472Y-58307080D01*
X75557325Y-58295963D01*
X75556868Y-58295927D01*
X75557250Y-58291076D01*
X75557250Y-58057837D01*
X80093750Y-58057837D01*
X80093750Y-58286162D01*
X80129465Y-58511660D01*
X80200020Y-58728803D01*
X80284014Y-58893649D01*
X80303671Y-58932228D01*
X80437871Y-59116937D01*
X80599313Y-59278379D01*
X80784022Y-59412579D01*
X80880134Y-59461550D01*
X80987446Y-59516229D01*
X80987448Y-59516229D01*
X80987451Y-59516231D01*
X81039815Y-59533245D01*
X81204589Y-59586784D01*
X81430088Y-59622500D01*
X81430093Y-59622500D01*
X81658412Y-59622500D01*
X81883910Y-59586784D01*
X81958023Y-59562703D01*
X82101049Y-59516231D01*
X82304478Y-59412579D01*
X82489187Y-59278379D01*
X82650629Y-59116937D01*
X82784829Y-58932228D01*
X82888481Y-58728799D01*
X82959034Y-58511660D01*
X82971737Y-58431455D01*
X82994750Y-58286162D01*
X82994750Y-58057836D01*
X82993092Y-58047368D01*
X82990790Y-58032837D01*
X97324500Y-58032837D01*
X97324500Y-58261162D01*
X97360215Y-58486660D01*
X97430770Y-58703803D01*
X97460907Y-58762949D01*
X97534421Y-58907228D01*
X97668621Y-59091937D01*
X97830063Y-59253379D01*
X98014772Y-59387579D01*
X98110884Y-59436550D01*
X98218196Y-59491229D01*
X98218198Y-59491229D01*
X98218201Y-59491231D01*
X98295137Y-59516229D01*
X98435339Y-59561784D01*
X98660838Y-59597500D01*
X98660843Y-59597500D01*
X98889162Y-59597500D01*
X99114660Y-59561784D01*
X99202484Y-59533248D01*
X99331799Y-59491231D01*
X99535228Y-59387579D01*
X99719937Y-59253379D01*
X99881379Y-59091937D01*
X100015579Y-58907228D01*
X100119231Y-58703799D01*
X100189784Y-58486660D01*
X100193016Y-58466256D01*
X100225500Y-58261162D01*
X100225500Y-58032837D01*
X100189784Y-57807339D01*
X100145159Y-57670000D01*
X100119231Y-57590201D01*
X100119229Y-57590198D01*
X100119229Y-57590196D01*
X100028317Y-57411772D01*
X100015579Y-57386772D01*
X99881379Y-57202063D01*
X99719937Y-57040621D01*
X99535228Y-56906421D01*
X99479384Y-56877967D01*
X99331803Y-56802770D01*
X99114660Y-56732215D01*
X98889162Y-56696500D01*
X98889157Y-56696500D01*
X98660843Y-56696500D01*
X98660838Y-56696500D01*
X98435339Y-56732215D01*
X98218196Y-56802770D01*
X98014771Y-56906421D01*
X97830061Y-57040622D01*
X97668622Y-57202061D01*
X97534421Y-57386771D01*
X97430770Y-57590196D01*
X97360215Y-57807339D01*
X97324500Y-58032837D01*
X82990790Y-58032837D01*
X82959034Y-57832339D01*
X82906622Y-57671033D01*
X82888481Y-57615201D01*
X82888479Y-57615198D01*
X82888479Y-57615196D01*
X82784828Y-57411771D01*
X82766665Y-57386772D01*
X82650629Y-57227063D01*
X82489187Y-57065621D01*
X82304478Y-56931421D01*
X82245376Y-56901307D01*
X82101053Y-56827770D01*
X81883910Y-56757215D01*
X81658412Y-56721500D01*
X81658407Y-56721500D01*
X81430093Y-56721500D01*
X81430088Y-56721500D01*
X81204589Y-56757215D01*
X80987446Y-56827770D01*
X80784021Y-56931421D01*
X80599311Y-57065622D01*
X80437872Y-57227061D01*
X80303671Y-57411771D01*
X80200020Y-57615196D01*
X80129465Y-57832339D01*
X80093750Y-58057837D01*
X75557250Y-58057837D01*
X75557250Y-58056491D01*
X75557250Y-58052924D01*
X75556934Y-58050931D01*
X75556582Y-58044723D01*
X75563143Y-58016561D01*
X75566828Y-57987883D01*
X75570974Y-57982950D01*
X75572436Y-57976676D01*
X75593180Y-57956532D01*
X75611786Y-57934398D01*
X75617939Y-57932490D01*
X75622562Y-57928002D01*
X75650906Y-57922270D01*
X75678523Y-57913710D01*
X75689398Y-57914488D01*
X75690348Y-57914295D01*
X75690363Y-57914118D01*
X75690986Y-57914167D01*
X75691046Y-57914155D01*
X75691099Y-57914176D01*
X75695214Y-57914500D01*
X75933285Y-57914500D01*
X76168429Y-57877256D01*
X76394846Y-57803690D01*
X76394849Y-57803689D01*
X76606973Y-57695605D01*
X76692303Y-57633607D01*
X76080871Y-57022175D01*
X76133982Y-57000177D01*
X76244537Y-56926307D01*
X76338557Y-56832287D01*
X76412427Y-56721732D01*
X76434425Y-56668622D01*
X77045857Y-57280054D01*
X77045857Y-57280053D01*
X77107855Y-57194723D01*
X77215939Y-56982599D01*
X77215940Y-56982596D01*
X77289506Y-56756179D01*
X77326750Y-56521035D01*
X77326750Y-56282963D01*
X77325091Y-56272489D01*
X77289506Y-56047820D01*
X77215940Y-55821403D01*
X77215939Y-55821400D01*
X77107859Y-55609284D01*
X77107851Y-55609271D01*
X77045858Y-55523945D01*
X77045857Y-55523944D01*
X76434425Y-56135376D01*
X76412427Y-56082268D01*
X76338557Y-55971713D01*
X76244537Y-55877693D01*
X76133982Y-55803823D01*
X76080872Y-55781824D01*
X76692304Y-55170392D01*
X76692303Y-55170391D01*
X76606973Y-55108394D01*
X76394849Y-55000310D01*
X76394846Y-55000309D01*
X76168429Y-54926743D01*
X75933285Y-54889500D01*
X75695215Y-54889500D01*
X75460070Y-54926743D01*
X75233653Y-55000309D01*
X75233650Y-55000310D01*
X75021523Y-55108396D01*
X74936195Y-55170390D01*
X74936194Y-55170391D01*
X75547627Y-55781824D01*
X75494518Y-55803823D01*
X75383963Y-55877693D01*
X75289943Y-55971713D01*
X75216073Y-56082268D01*
X75194074Y-56135377D01*
X74582641Y-55523944D01*
X74582640Y-55523945D01*
X74520646Y-55609273D01*
X74412560Y-55821400D01*
X74412559Y-55821403D01*
X74338993Y-56047820D01*
X74301750Y-56282964D01*
X74301750Y-56521043D01*
X74302132Y-56525900D01*
X74299849Y-56526079D01*
X74291941Y-56586055D01*
X74246807Y-56639390D01*
X74180002Y-56659858D01*
X74168206Y-56659002D01*
X74168177Y-56659382D01*
X74163326Y-56659000D01*
X73925174Y-56659000D01*
X73925167Y-56659000D01*
X73920310Y-56659382D01*
X73920130Y-56657096D01*
X73860136Y-56649110D01*
X73806857Y-56603910D01*
X73786472Y-56537080D01*
X73787325Y-56525963D01*
X73786868Y-56525927D01*
X73787250Y-56521076D01*
X73787250Y-56282925D01*
X73785597Y-56272489D01*
X73749994Y-56047705D01*
X73694754Y-55877693D01*
X73676403Y-55821212D01*
X73676402Y-55821209D01*
X73603400Y-55677936D01*
X73568283Y-55609015D01*
X73428301Y-55416347D01*
X73259903Y-55247949D01*
X73067235Y-55107967D01*
X73012078Y-55079863D01*
X72855040Y-54999847D01*
X72855037Y-54999846D01*
X72628546Y-54926256D01*
X72470705Y-54901256D01*
X72393326Y-54889000D01*
X72155174Y-54889000D01*
X72077795Y-54901256D01*
X71919953Y-54926256D01*
X71693462Y-54999846D01*
X71693459Y-54999847D01*
X71481264Y-55107967D01*
X71371340Y-55187832D01*
X71288597Y-55247949D01*
X71288595Y-55247951D01*
X71288594Y-55247951D01*
X71120201Y-55416344D01*
X71120201Y-55416345D01*
X71120199Y-55416347D01*
X71107075Y-55434411D01*
X70980217Y-55609014D01*
X70872097Y-55821209D01*
X70872096Y-55821212D01*
X70798506Y-56047703D01*
X70791015Y-56094998D01*
X70761250Y-56282924D01*
X53237079Y-56282924D01*
X53625000Y-55650000D01*
X53645232Y-55584015D01*
X53985274Y-54475004D01*
X53985274Y-54475002D01*
X53985275Y-54475000D01*
X53986900Y-54394995D01*
X53993660Y-54062188D01*
X64868750Y-54062188D01*
X64868750Y-54281811D01*
X64868751Y-54281828D01*
X64897417Y-54499573D01*
X64954264Y-54711729D01*
X65038313Y-54914641D01*
X65038315Y-54914645D01*
X65148134Y-55104855D01*
X65148139Y-55104861D01*
X65148140Y-55104863D01*
X65281838Y-55279102D01*
X65281844Y-55279109D01*
X65437140Y-55434405D01*
X65437146Y-55434410D01*
X65611395Y-55568116D01*
X65801605Y-55677935D01*
X65903064Y-55719960D01*
X66004520Y-55761985D01*
X66004521Y-55761985D01*
X66004523Y-55761986D01*
X66216675Y-55818832D01*
X66434432Y-55847500D01*
X66434439Y-55847500D01*
X66654061Y-55847500D01*
X66654068Y-55847500D01*
X66871825Y-55818832D01*
X67083977Y-55761986D01*
X67286895Y-55677935D01*
X67477105Y-55568116D01*
X67651354Y-55434410D01*
X67806660Y-55279104D01*
X67940366Y-55104855D01*
X68050185Y-54914645D01*
X68134236Y-54711727D01*
X68191082Y-54499575D01*
X68219750Y-54281818D01*
X68219750Y-54062188D01*
X79868750Y-54062188D01*
X79868750Y-54281811D01*
X79868751Y-54281828D01*
X79897417Y-54499573D01*
X79954264Y-54711729D01*
X80038313Y-54914641D01*
X80038315Y-54914645D01*
X80148134Y-55104855D01*
X80148139Y-55104861D01*
X80148140Y-55104863D01*
X80281838Y-55279102D01*
X80281844Y-55279109D01*
X80437140Y-55434405D01*
X80437146Y-55434410D01*
X80611395Y-55568116D01*
X80801605Y-55677935D01*
X80903064Y-55719960D01*
X81004520Y-55761985D01*
X81004521Y-55761985D01*
X81004523Y-55761986D01*
X81216675Y-55818832D01*
X81434432Y-55847500D01*
X81434439Y-55847500D01*
X81654061Y-55847500D01*
X81654068Y-55847500D01*
X81871825Y-55818832D01*
X82083977Y-55761986D01*
X82286895Y-55677935D01*
X82477105Y-55568116D01*
X82651354Y-55434410D01*
X82806660Y-55279104D01*
X82940366Y-55104855D01*
X83050185Y-54914645D01*
X83134236Y-54711727D01*
X83191082Y-54499575D01*
X83219750Y-54281818D01*
X83219750Y-54062182D01*
X83216460Y-54037188D01*
X97099500Y-54037188D01*
X97099500Y-54256811D01*
X97099501Y-54256828D01*
X97128167Y-54474573D01*
X97185014Y-54686729D01*
X97269005Y-54889500D01*
X97269065Y-54889645D01*
X97378884Y-55079855D01*
X97378889Y-55079861D01*
X97378890Y-55079863D01*
X97512588Y-55254102D01*
X97512594Y-55254109D01*
X97667890Y-55409405D01*
X97667897Y-55409411D01*
X97700478Y-55434411D01*
X97842145Y-55543116D01*
X98032355Y-55652935D01*
X98092708Y-55677934D01*
X98235270Y-55736985D01*
X98235271Y-55736985D01*
X98235273Y-55736986D01*
X98447425Y-55793832D01*
X98665182Y-55822500D01*
X98665189Y-55822500D01*
X98884811Y-55822500D01*
X98884818Y-55822500D01*
X99102575Y-55793832D01*
X99314727Y-55736986D01*
X99517645Y-55652935D01*
X99707855Y-55543116D01*
X99882104Y-55409410D01*
X100037410Y-55254104D01*
X100171116Y-55079855D01*
X100280935Y-54889645D01*
X100364986Y-54686727D01*
X100421832Y-54474575D01*
X100450500Y-54256818D01*
X100450500Y-54037188D01*
X112099500Y-54037188D01*
X112099500Y-54256811D01*
X112099501Y-54256828D01*
X112128167Y-54474573D01*
X112185014Y-54686729D01*
X112269005Y-54889500D01*
X112269065Y-54889645D01*
X112378884Y-55079855D01*
X112378889Y-55079861D01*
X112378890Y-55079863D01*
X112512588Y-55254102D01*
X112512594Y-55254109D01*
X112667890Y-55409405D01*
X112667897Y-55409411D01*
X112700478Y-55434411D01*
X112842145Y-55543116D01*
X113032355Y-55652935D01*
X113092708Y-55677934D01*
X113235270Y-55736985D01*
X113235271Y-55736985D01*
X113235273Y-55736986D01*
X113447425Y-55793832D01*
X113665182Y-55822500D01*
X113665189Y-55822500D01*
X113884811Y-55822500D01*
X113884818Y-55822500D01*
X114102575Y-55793832D01*
X114314727Y-55736986D01*
X114517645Y-55652935D01*
X114707855Y-55543116D01*
X114882104Y-55409410D01*
X115037410Y-55254104D01*
X115171116Y-55079855D01*
X115280935Y-54889645D01*
X115364986Y-54686727D01*
X115421832Y-54474575D01*
X115450500Y-54256818D01*
X115450500Y-54037182D01*
X115421832Y-53819425D01*
X115415287Y-53795000D01*
X172769999Y-53795000D01*
X172894999Y-54869999D01*
X173394998Y-56094998D01*
X173394999Y-56094999D01*
X173395000Y-56095000D01*
X174395000Y-57120000D01*
X175695000Y-57595000D01*
X176470000Y-57705275D01*
X176920000Y-57670000D01*
X178370000Y-57220000D01*
X179320000Y-56345000D01*
X179795000Y-55570000D01*
X179937619Y-55104863D01*
X180155274Y-54395004D01*
X180155274Y-54395002D01*
X180155275Y-54395000D01*
X180170000Y-53670000D01*
X179770000Y-52420000D01*
X179249730Y-51650000D01*
X179145000Y-51494999D01*
X179144998Y-51494998D01*
X178170003Y-50720002D01*
X178170001Y-50720001D01*
X178170000Y-50720000D01*
X177020000Y-50334725D01*
X177019999Y-50334724D01*
X177019997Y-50334724D01*
X175870003Y-50294999D01*
X175870000Y-50295000D01*
X175666003Y-50374999D01*
X174595002Y-50794999D01*
X174594998Y-50795001D01*
X173645000Y-51569998D01*
X173645000Y-51569999D01*
X172994999Y-52770001D01*
X172770000Y-53794998D01*
X172769999Y-53795000D01*
X115415287Y-53795000D01*
X115364986Y-53607273D01*
X115280935Y-53404355D01*
X115171116Y-53214145D01*
X115037410Y-53039896D01*
X115037405Y-53039890D01*
X114882109Y-52884594D01*
X114882102Y-52884588D01*
X114707863Y-52750890D01*
X114707861Y-52750889D01*
X114707855Y-52750884D01*
X114517645Y-52641065D01*
X114517641Y-52641063D01*
X114314729Y-52557014D01*
X114102573Y-52500167D01*
X113884828Y-52471501D01*
X113884823Y-52471500D01*
X113884818Y-52471500D01*
X113665182Y-52471500D01*
X113665176Y-52471500D01*
X113665171Y-52471501D01*
X113447426Y-52500167D01*
X113235270Y-52557014D01*
X113032358Y-52641063D01*
X113032354Y-52641065D01*
X112842145Y-52750884D01*
X112842136Y-52750890D01*
X112667897Y-52884588D01*
X112667890Y-52884594D01*
X112512594Y-53039890D01*
X112512588Y-53039897D01*
X112378890Y-53214136D01*
X112378884Y-53214145D01*
X112269065Y-53404354D01*
X112269063Y-53404358D01*
X112185014Y-53607270D01*
X112128167Y-53819426D01*
X112099501Y-54037171D01*
X112099500Y-54037188D01*
X100450500Y-54037188D01*
X100450500Y-54037182D01*
X100421832Y-53819425D01*
X100364986Y-53607273D01*
X100280935Y-53404355D01*
X100171116Y-53214145D01*
X100037410Y-53039896D01*
X100037405Y-53039890D01*
X99882109Y-52884594D01*
X99882102Y-52884588D01*
X99707863Y-52750890D01*
X99707861Y-52750889D01*
X99707855Y-52750884D01*
X99517645Y-52641065D01*
X99517641Y-52641063D01*
X99314729Y-52557014D01*
X99102573Y-52500167D01*
X98884828Y-52471501D01*
X98884823Y-52471500D01*
X98884818Y-52471500D01*
X98665182Y-52471500D01*
X98665176Y-52471500D01*
X98665171Y-52471501D01*
X98447426Y-52500167D01*
X98235270Y-52557014D01*
X98032358Y-52641063D01*
X98032354Y-52641065D01*
X97842145Y-52750884D01*
X97842136Y-52750890D01*
X97667897Y-52884588D01*
X97667890Y-52884594D01*
X97512594Y-53039890D01*
X97512588Y-53039897D01*
X97378890Y-53214136D01*
X97378884Y-53214145D01*
X97269065Y-53404354D01*
X97269063Y-53404358D01*
X97185014Y-53607270D01*
X97128167Y-53819426D01*
X97099501Y-54037171D01*
X97099500Y-54037188D01*
X83216460Y-54037188D01*
X83191082Y-53844425D01*
X83134236Y-53632273D01*
X83123879Y-53607270D01*
X83050186Y-53429358D01*
X83050185Y-53429355D01*
X82940366Y-53239145D01*
X82806660Y-53064896D01*
X82806655Y-53064890D01*
X82651359Y-52909594D01*
X82651352Y-52909588D01*
X82477113Y-52775890D01*
X82477111Y-52775889D01*
X82477105Y-52775884D01*
X82286895Y-52666065D01*
X82286891Y-52666063D01*
X82083979Y-52582014D01*
X81871823Y-52525167D01*
X81654078Y-52496501D01*
X81654073Y-52496500D01*
X81654068Y-52496500D01*
X81434432Y-52496500D01*
X81434426Y-52496500D01*
X81434421Y-52496501D01*
X81216676Y-52525167D01*
X81004520Y-52582014D01*
X80801608Y-52666063D01*
X80801604Y-52666065D01*
X80611395Y-52775884D01*
X80611386Y-52775890D01*
X80437147Y-52909588D01*
X80437140Y-52909594D01*
X80281844Y-53064890D01*
X80281838Y-53064897D01*
X80148140Y-53239136D01*
X80148134Y-53239145D01*
X80038315Y-53429354D01*
X80038313Y-53429358D01*
X79954264Y-53632270D01*
X79897417Y-53844426D01*
X79868751Y-54062171D01*
X79868751Y-54062179D01*
X79868750Y-54062188D01*
X68219750Y-54062188D01*
X68219750Y-54062182D01*
X68191082Y-53844425D01*
X68134236Y-53632273D01*
X68123879Y-53607270D01*
X68050186Y-53429358D01*
X68050185Y-53429355D01*
X67940366Y-53239145D01*
X67806660Y-53064896D01*
X67806655Y-53064890D01*
X67651359Y-52909594D01*
X67651352Y-52909588D01*
X67477113Y-52775890D01*
X67477111Y-52775889D01*
X67477105Y-52775884D01*
X67286895Y-52666065D01*
X67286891Y-52666063D01*
X67083979Y-52582014D01*
X66871823Y-52525167D01*
X66654078Y-52496501D01*
X66654073Y-52496500D01*
X66654068Y-52496500D01*
X66434432Y-52496500D01*
X66434426Y-52496500D01*
X66434421Y-52496501D01*
X66216676Y-52525167D01*
X66004520Y-52582014D01*
X65801608Y-52666063D01*
X65801604Y-52666065D01*
X65611395Y-52775884D01*
X65611386Y-52775890D01*
X65437147Y-52909588D01*
X65437140Y-52909594D01*
X65281844Y-53064890D01*
X65281838Y-53064897D01*
X65148140Y-53239136D01*
X65148134Y-53239145D01*
X65038315Y-53429354D01*
X65038313Y-53429358D01*
X64954264Y-53632270D01*
X64897417Y-53844426D01*
X64868751Y-54062171D01*
X64868751Y-54062179D01*
X64868750Y-54062188D01*
X53993660Y-54062188D01*
X53993794Y-54055605D01*
X54000000Y-53750002D01*
X53999999Y-53750001D01*
X54000000Y-53750000D01*
X53600000Y-52500000D01*
X53025676Y-51650000D01*
X52975000Y-51574999D01*
X52974998Y-51574998D01*
X52000003Y-50800002D01*
X52000001Y-50800001D01*
X52000000Y-50800000D01*
X50850000Y-50414725D01*
X50849999Y-50414724D01*
X50849997Y-50414724D01*
X49700003Y-50374999D01*
X49700000Y-50375000D01*
X49126252Y-50599999D01*
X48425002Y-50874999D01*
X48424998Y-50875001D01*
X47475000Y-51649998D01*
X47475000Y-51649999D01*
X46824999Y-52850001D01*
X46600000Y-53874998D01*
X46599999Y-53875000D01*
X45300500Y-53875000D01*
X45300500Y-49224408D01*
X45320185Y-49157369D01*
X45372989Y-49111614D01*
X45424408Y-49100408D01*
X181375409Y-49000591D01*
X181442463Y-49020226D01*
G37*
G04 #@! TD.AperFunction*
M02*
