G04 #@! TF.GenerationSoftware,KiCad,Pcbnew,9.0.4*
G04 #@! TF.CreationDate,2025-10-21T10:02:53+08:00*
G04 #@! TF.ProjectId,M12 connecter HUD,4d313220-636f-46e6-9e65-637465722048,rev?*
G04 #@! TF.SameCoordinates,Original*
G04 #@! TF.FileFunction,Soldermask,Top*
G04 #@! TF.FilePolarity,Negative*
%FSLAX46Y46*%
G04 Gerber Fmt 4.6, Leading zero omitted, Abs format (unit mm)*
G04 Created by KiCad (PCBNEW 9.0.4) date 2025-10-21 10:02:53*
%MOMM*%
%LPD*%
G01*
G04 APERTURE LIST*
G04 Aperture macros list*
%AMRoundRect*
0 Rectangle with rounded corners*
0 $1 Rounding radius*
0 $2 $3 $4 $5 $6 $7 $8 $9 X,Y pos of 4 corners*
0 Add a 4 corners polygon primitive as box body*
4,1,4,$2,$3,$4,$5,$6,$7,$8,$9,$2,$3,0*
0 Add four circle primitives for the rounded corners*
1,1,$1+$1,$2,$3*
1,1,$1+$1,$4,$5*
1,1,$1+$1,$6,$7*
1,1,$1+$1,$8,$9*
0 Add four rect primitives between the rounded corners*
20,1,$1+$1,$2,$3,$4,$5,0*
20,1,$1+$1,$4,$5,$6,$7,0*
20,1,$1+$1,$6,$7,$8,$9,0*
20,1,$1+$1,$8,$9,$2,$3,0*%
G04 Aperture macros list end*
%ADD10C,3.200000*%
%ADD11C,2.400000*%
%ADD12C,2.850000*%
%ADD13C,2.229000*%
%ADD14C,3.040000*%
%ADD15RoundRect,0.102000X-1.320000X1.320000X-1.320000X-1.320000X1.320000X-1.320000X1.320000X1.320000X0*%
%ADD16C,2.844000*%
%ADD17R,1.700000X1.700000*%
%ADD18C,1.700000*%
%ADD19R,1.600000X1.600000*%
%ADD20O,1.600000X1.600000*%
%ADD21R,1.200000X1.200000*%
%ADD22C,1.200000*%
%ADD23R,1.300000X1.300000*%
%ADD24C,1.300000*%
G04 APERTURE END LIST*
D10*
X126775000Y-92150000D03*
X176500000Y-54000000D03*
D11*
X81544250Y-58172000D03*
D12*
X81544250Y-54172000D03*
D11*
X66544250Y-58172000D03*
D12*
X66544250Y-54172000D03*
D13*
X72274250Y-59942000D03*
X75814250Y-59942000D03*
X75814250Y-56402000D03*
X72274250Y-56402000D03*
X74044250Y-58172000D03*
D10*
X50300000Y-54100000D03*
D14*
X144565000Y-58547500D03*
X153215000Y-69977500D03*
X135915000Y-69977500D03*
D15*
X146790000Y-70997500D03*
D16*
X142340000Y-70997500D03*
X142340000Y-64647500D03*
X146790000Y-64647500D03*
D10*
X165800000Y-115475000D03*
X50300000Y-119750000D03*
X126700000Y-115525000D03*
X166025000Y-92025000D03*
D17*
X133960000Y-102600000D03*
D18*
X133960000Y-105140000D03*
X136500000Y-102600000D03*
X136500000Y-105140000D03*
X139040000Y-102600000D03*
X139040000Y-105140000D03*
X141580000Y-102600000D03*
X141580000Y-105140000D03*
X144120000Y-102600000D03*
X144120000Y-105140000D03*
D11*
X113775000Y-58147000D03*
D12*
X113775000Y-54147000D03*
D11*
X98775000Y-58147000D03*
D12*
X98775000Y-54147000D03*
D13*
X108045000Y-59917000D03*
X104505000Y-59917000D03*
X104505000Y-56377000D03*
X108045000Y-56377000D03*
X106275000Y-58147000D03*
D10*
X176500000Y-119650000D03*
D19*
X94360000Y-79530000D03*
D20*
X91820000Y-79530000D03*
X89280000Y-79530000D03*
X86740000Y-79530000D03*
X84200000Y-79530000D03*
X81660000Y-79530000D03*
X79120000Y-79530000D03*
X76580000Y-79530000D03*
X74040000Y-79530000D03*
X71500000Y-79530000D03*
X68960000Y-79530000D03*
X66420000Y-79530000D03*
X63880000Y-79530000D03*
X61340000Y-79530000D03*
X58800000Y-79530000D03*
X58800000Y-94770000D03*
X61340000Y-94770000D03*
X63880000Y-94770000D03*
X66420000Y-94770000D03*
X68960000Y-94770000D03*
X71500000Y-94770000D03*
X74040000Y-94770000D03*
X76580000Y-94770000D03*
X79120000Y-94770000D03*
X81660000Y-94770000D03*
X84200000Y-94770000D03*
X86740000Y-94770000D03*
X89280000Y-94770000D03*
X91820000Y-94770000D03*
X94360000Y-94770000D03*
D21*
X88930000Y-67865000D03*
D22*
X90930000Y-67865000D03*
D23*
X104390000Y-86330000D03*
D24*
X104390000Y-88330000D03*
X104390000Y-90330000D03*
X104390000Y-92330000D03*
M02*
