G04 #@! TF.GenerationSoftware,KiCad,Pcbnew,9.0.4*
G04 #@! TF.CreationDate,2025-10-21T10:02:53+08:00*
G04 #@! TF.ProjectId,M12 connecter HUD,4d313220-636f-46e6-9e65-637465722048,rev?*
G04 #@! TF.SameCoordinates,Original*
G04 #@! TF.FileFunction,Legend,Bot*
G04 #@! TF.FilePolarity,Positive*
%FSLAX46Y46*%
G04 Gerber Fmt 4.6, Leading zero omitted, Abs format (unit mm)*
G04 Created by KiCad (PCBNEW 9.0.4) date 2025-10-21 10:02:53*
%MOMM*%
%LPD*%
G01*
G04 APERTURE LIST*
%ADD10C,0.150000*%
%ADD11C,0.250000*%
G04 APERTURE END LIST*
D10*
G36*
X105117811Y-83615000D02*
G01*
X105936177Y-83615000D01*
X105936177Y-83268144D01*
X105805019Y-83268144D01*
X105805019Y-82531569D01*
X105936177Y-82531569D01*
X105936177Y-82184713D01*
X105117811Y-82184713D01*
X105117811Y-82531569D01*
X105247962Y-82531569D01*
X105247962Y-83268144D01*
X105117811Y-83268144D01*
X105117811Y-83615000D01*
G37*
G36*
X104062865Y-83163639D02*
G01*
X103761897Y-83163639D01*
X103774353Y-83615000D01*
X104914387Y-83615000D01*
X104916494Y-83567922D01*
X104906522Y-83436923D01*
X104877516Y-83318090D01*
X104830032Y-83209343D01*
X104778815Y-83130168D01*
X104707758Y-83047684D01*
X104623822Y-82969359D01*
X104517706Y-82886026D01*
X104348073Y-82753655D01*
X104275356Y-82685350D01*
X104244416Y-82641283D01*
X104227258Y-82599545D01*
X104221775Y-82558954D01*
X104231153Y-82502146D01*
X104257954Y-82458296D01*
X104284469Y-82437413D01*
X104319703Y-82424080D01*
X104366398Y-82419187D01*
X104421894Y-82427079D01*
X104462920Y-82448921D01*
X104493211Y-82484950D01*
X104513491Y-82539184D01*
X104521278Y-82618580D01*
X104894054Y-82607223D01*
X104882477Y-82506728D01*
X104859321Y-82424148D01*
X104825984Y-82356434D01*
X104782950Y-82301167D01*
X104729740Y-82256704D01*
X104651501Y-82213922D01*
X104562184Y-82182301D01*
X104459984Y-82162400D01*
X104342767Y-82155404D01*
X104214810Y-82163569D01*
X104104990Y-82186665D01*
X104010533Y-82223200D01*
X103929142Y-82272549D01*
X103858296Y-82337843D01*
X103809478Y-82410008D01*
X103780200Y-82490532D01*
X103770140Y-82581944D01*
X103778956Y-82661091D01*
X103805399Y-82736160D01*
X103850740Y-82808815D01*
X103912129Y-82871199D01*
X104012359Y-82944511D01*
X104164256Y-83030648D01*
X104333956Y-83121257D01*
X104413842Y-83172523D01*
X104470859Y-83225841D01*
X104509097Y-83280875D01*
X104067994Y-83280875D01*
X104062865Y-83163639D01*
G37*
G36*
X102380062Y-82979449D02*
G01*
X102004447Y-83111432D01*
X102036699Y-83224111D01*
X102083606Y-83323743D01*
X102145154Y-83412080D01*
X102222159Y-83490344D01*
X102311436Y-83552515D01*
X102417738Y-83598636D01*
X102544359Y-83627983D01*
X102695410Y-83638447D01*
X102863913Y-83628249D01*
X103005100Y-83599738D01*
X103123279Y-83555269D01*
X103222065Y-83496078D01*
X103304216Y-83422200D01*
X103375659Y-83332883D01*
X103430694Y-83237126D01*
X103470212Y-83133958D01*
X103494394Y-83022065D01*
X103502694Y-82899856D01*
X103494549Y-82776690D01*
X103470819Y-82663784D01*
X103432063Y-82559598D01*
X103378164Y-82462848D01*
X103308338Y-82372567D01*
X103225741Y-82294306D01*
X103135285Y-82234243D01*
X103035855Y-82191095D01*
X102925800Y-82164572D01*
X102803030Y-82155404D01*
X102676799Y-82163822D01*
X102568912Y-82187612D01*
X102476467Y-82225259D01*
X102397098Y-82276213D01*
X102397098Y-82184713D01*
X102048961Y-82184713D01*
X102048961Y-82709988D01*
X102409646Y-82709988D01*
X102433331Y-82647227D01*
X102464367Y-82596426D01*
X102502611Y-82555749D01*
X102548175Y-82525279D01*
X102596960Y-82507319D01*
X102650256Y-82501252D01*
X102715348Y-82510647D01*
X102767912Y-82537573D01*
X102811143Y-82583219D01*
X102845727Y-82652556D01*
X102869725Y-82753543D01*
X102878959Y-82896376D01*
X102869522Y-83038769D01*
X102844943Y-83139782D01*
X102809391Y-83209469D01*
X102764713Y-83255622D01*
X102710073Y-83283008D01*
X102642104Y-83292599D01*
X102580476Y-83284818D01*
X102527712Y-83262249D01*
X102481587Y-83224253D01*
X102441123Y-83167919D01*
X102406721Y-83088427D01*
X102380062Y-82979449D01*
G37*
G36*
X93364877Y-64139449D02*
G01*
X92989262Y-64271432D01*
X93021514Y-64384111D01*
X93068421Y-64483743D01*
X93129970Y-64572080D01*
X93206974Y-64650344D01*
X93296251Y-64712515D01*
X93402553Y-64758636D01*
X93529174Y-64787983D01*
X93680225Y-64798447D01*
X93848728Y-64788249D01*
X93989915Y-64759738D01*
X94108094Y-64715269D01*
X94206880Y-64656078D01*
X94289031Y-64582200D01*
X94360474Y-64492883D01*
X94415509Y-64397126D01*
X94455027Y-64293958D01*
X94479209Y-64182065D01*
X94487509Y-64059856D01*
X94479364Y-63936690D01*
X94455634Y-63823784D01*
X94416878Y-63719598D01*
X94362979Y-63622848D01*
X94293153Y-63532567D01*
X94210556Y-63454306D01*
X94120100Y-63394243D01*
X94020670Y-63351095D01*
X93910616Y-63324572D01*
X93787845Y-63315404D01*
X93661614Y-63323822D01*
X93553727Y-63347612D01*
X93461282Y-63385259D01*
X93381913Y-63436213D01*
X93381913Y-63344713D01*
X93033776Y-63344713D01*
X93033776Y-63869988D01*
X93394461Y-63869988D01*
X93418146Y-63807227D01*
X93449182Y-63756426D01*
X93487426Y-63715749D01*
X93532990Y-63685279D01*
X93581775Y-63667319D01*
X93635071Y-63661252D01*
X93700163Y-63670647D01*
X93752727Y-63697573D01*
X93795958Y-63743219D01*
X93830542Y-63812556D01*
X93854540Y-63913543D01*
X93863774Y-64056376D01*
X93854337Y-64198769D01*
X93829758Y-64299782D01*
X93794206Y-64369469D01*
X93749528Y-64415622D01*
X93694888Y-64443008D01*
X93626919Y-64452599D01*
X93565291Y-64444818D01*
X93512527Y-64422249D01*
X93466402Y-64384253D01*
X93425938Y-64327919D01*
X93391536Y-64248427D01*
X93364877Y-64139449D01*
G37*
G36*
X92643323Y-63690561D02*
G01*
X92529842Y-63690561D01*
X92795089Y-64427778D01*
X92904632Y-64427778D01*
X92904632Y-64775000D01*
X92334112Y-64775000D01*
X92334112Y-64456263D01*
X92449791Y-64456263D01*
X92389249Y-64282606D01*
X92028838Y-64282606D01*
X91976265Y-64456263D01*
X92100188Y-64456263D01*
X92100188Y-64775000D01*
X91350423Y-64775000D01*
X91350423Y-64427778D01*
X91455845Y-64427778D01*
X91575733Y-64100889D01*
X92085900Y-64100889D01*
X92332921Y-64100889D01*
X92203045Y-63720603D01*
X92085900Y-64100889D01*
X91575733Y-64100889D01*
X91726222Y-63690561D01*
X91612740Y-63690561D01*
X91612740Y-63344713D01*
X92643323Y-63344713D01*
X92643323Y-63690561D01*
G37*
G36*
X90694631Y-64775000D02*
G01*
X91285577Y-64775000D01*
X91285577Y-64427778D01*
X91160647Y-64427778D01*
X91160647Y-63690561D01*
X91285577Y-63690561D01*
X91285577Y-63344713D01*
X90605880Y-63344713D01*
X90091871Y-64082754D01*
X90091871Y-63690561D01*
X90207642Y-63690561D01*
X90207642Y-63344713D01*
X89626954Y-63344713D01*
X89626954Y-63690561D01*
X89750969Y-63690561D01*
X89750969Y-64792585D01*
X90224769Y-64792585D01*
X90820661Y-63937308D01*
X90820661Y-64427595D01*
X90694631Y-64427595D01*
X90694631Y-64775000D01*
G37*
G36*
X88945150Y-63690561D02*
G01*
X88821136Y-63690561D01*
X88821136Y-64427778D01*
X88945150Y-64427778D01*
X88945150Y-64775000D01*
X88135760Y-64775000D01*
X87848440Y-64765708D01*
X87671027Y-64743126D01*
X87567565Y-64713581D01*
X87483780Y-64669798D01*
X87416312Y-64612242D01*
X87364805Y-64540167D01*
X87333960Y-64459141D01*
X87323347Y-64366412D01*
X87328589Y-64321715D01*
X87923544Y-64321715D01*
X87929766Y-64369917D01*
X87946570Y-64404154D01*
X87973369Y-64428144D01*
X88034067Y-64449448D01*
X88142996Y-64458461D01*
X88264079Y-64458461D01*
X88264079Y-64182955D01*
X88145102Y-64182955D01*
X88056806Y-64187892D01*
X88001246Y-64200029D01*
X87968515Y-64216294D01*
X87944217Y-64242060D01*
X87929058Y-64276275D01*
X87923544Y-64321715D01*
X87328589Y-64321715D01*
X87332458Y-64288732D01*
X87359612Y-64216660D01*
X87406054Y-64148333D01*
X87465386Y-64092194D01*
X87538880Y-64046414D01*
X87628987Y-64011130D01*
X87564931Y-63988420D01*
X87505981Y-63955146D01*
X87451392Y-63910655D01*
X87409998Y-63857983D01*
X87384620Y-63794161D01*
X87384209Y-63790579D01*
X87948182Y-63790579D01*
X87957487Y-63843654D01*
X87984085Y-63883727D01*
X88012515Y-63900982D01*
X88062708Y-63913875D01*
X88145011Y-63919173D01*
X88264079Y-63919173D01*
X88264079Y-63661985D01*
X88164520Y-63661985D01*
X88063006Y-63668295D01*
X88007773Y-63682919D01*
X87981338Y-63701369D01*
X87956389Y-63743676D01*
X87948182Y-63790579D01*
X87384209Y-63790579D01*
X87375646Y-63715932D01*
X87384614Y-63635490D01*
X87410947Y-63563141D01*
X87455239Y-63496846D01*
X87513374Y-63443652D01*
X87585401Y-63402777D01*
X87674050Y-63374389D01*
X87829256Y-63353267D01*
X88071280Y-63344713D01*
X88945150Y-63344713D01*
X88945150Y-63690561D01*
G37*
G36*
X87090157Y-63690561D02*
G01*
X87199791Y-63690561D01*
X87199791Y-63344713D01*
X86464315Y-63344713D01*
X86464315Y-63690561D01*
X86532001Y-63690561D01*
X86532001Y-64170040D01*
X86527165Y-64286501D01*
X86515279Y-64360411D01*
X86499577Y-64404147D01*
X86473395Y-64436887D01*
X86436261Y-64456968D01*
X86384264Y-64464323D01*
X86341089Y-64458221D01*
X86308652Y-64441242D01*
X86284247Y-64413215D01*
X86269289Y-64376841D01*
X86257718Y-64311539D01*
X86252923Y-64203929D01*
X86252923Y-63690561D01*
X86324730Y-63690561D01*
X86324730Y-63344713D01*
X85782969Y-63344713D01*
X85782969Y-63690561D01*
X85895717Y-63690561D01*
X85895717Y-64204662D01*
X85902961Y-64336453D01*
X85922883Y-64443512D01*
X85953328Y-64529993D01*
X85999706Y-64607111D01*
X86062910Y-64672543D01*
X86145211Y-64727281D01*
X86237068Y-64765509D01*
X86345726Y-64789802D01*
X86474481Y-64798447D01*
X86626553Y-64788465D01*
X86753010Y-64760620D01*
X86832394Y-64730367D01*
X86896966Y-64692615D01*
X86948923Y-64647688D01*
X86992349Y-64593768D01*
X87027745Y-64532301D01*
X87055169Y-64462308D01*
X87072759Y-64391459D01*
X87085303Y-64288452D01*
X87090157Y-64144120D01*
X87090157Y-63690561D01*
G37*
G36*
X85325563Y-64775000D02*
G01*
X85652177Y-64775000D01*
X85652177Y-64311915D01*
X85326296Y-64311915D01*
X85296630Y-64384624D01*
X85260655Y-64436287D01*
X85218780Y-64471299D01*
X85170044Y-64492231D01*
X85112247Y-64499494D01*
X85059219Y-64492754D01*
X85026339Y-64475507D01*
X85007292Y-64449043D01*
X85000415Y-64410284D01*
X85009996Y-64367789D01*
X85039341Y-64332706D01*
X85095021Y-64297335D01*
X85220050Y-64236810D01*
X85381698Y-64157722D01*
X85476688Y-64100340D01*
X85547255Y-64038996D01*
X85608763Y-63955076D01*
X85639037Y-63891994D01*
X85657251Y-63824661D01*
X85663442Y-63751927D01*
X85654620Y-63653709D01*
X85629595Y-63570702D01*
X85589358Y-63499982D01*
X85533292Y-63439510D01*
X85465889Y-63390795D01*
X85391463Y-63355934D01*
X85308669Y-63334533D01*
X85215745Y-63327128D01*
X85122324Y-63333985D01*
X85039848Y-63353682D01*
X84966553Y-63385483D01*
X84901038Y-63429435D01*
X84901038Y-63344713D01*
X84572410Y-63344713D01*
X84572410Y-63755041D01*
X84896092Y-63755041D01*
X84933666Y-63676240D01*
X84979618Y-63625041D01*
X85034365Y-63595298D01*
X85100982Y-63585048D01*
X85148590Y-63591396D01*
X85178496Y-63607805D01*
X85196116Y-63633399D01*
X85202556Y-63671419D01*
X85195110Y-63708456D01*
X85174071Y-63733609D01*
X85129528Y-63761013D01*
X84989057Y-63832894D01*
X84797181Y-63932557D01*
X84707964Y-63985942D01*
X84672771Y-64013323D01*
X84634234Y-64052621D01*
X84599421Y-64096657D01*
X84571769Y-64140915D01*
X84540272Y-64210217D01*
X84521433Y-64282834D01*
X84515074Y-64359817D01*
X84523589Y-64447392D01*
X84548478Y-64526381D01*
X84589835Y-64598671D01*
X84649163Y-64665548D01*
X84719773Y-64720639D01*
X84798518Y-64760000D01*
X84886987Y-64784189D01*
X84987317Y-64792585D01*
X85080500Y-64785647D01*
X85167174Y-64765261D01*
X85248538Y-64731570D01*
X85325563Y-64684050D01*
X85325563Y-64775000D01*
G37*
X85953333Y-68754819D02*
X85953333Y-69469104D01*
X85953333Y-69469104D02*
X86000952Y-69611961D01*
X86000952Y-69611961D02*
X86096190Y-69707200D01*
X86096190Y-69707200D02*
X86239047Y-69754819D01*
X86239047Y-69754819D02*
X86334285Y-69754819D01*
X85572380Y-68754819D02*
X84953333Y-68754819D01*
X84953333Y-68754819D02*
X85286666Y-69135771D01*
X85286666Y-69135771D02*
X85143809Y-69135771D01*
X85143809Y-69135771D02*
X85048571Y-69183390D01*
X85048571Y-69183390D02*
X85000952Y-69231009D01*
X85000952Y-69231009D02*
X84953333Y-69326247D01*
X84953333Y-69326247D02*
X84953333Y-69564342D01*
X84953333Y-69564342D02*
X85000952Y-69659580D01*
X85000952Y-69659580D02*
X85048571Y-69707200D01*
X85048571Y-69707200D02*
X85143809Y-69754819D01*
X85143809Y-69754819D02*
X85429523Y-69754819D01*
X85429523Y-69754819D02*
X85524761Y-69707200D01*
X85524761Y-69707200D02*
X85572380Y-69659580D01*
X107844819Y-88996666D02*
X108559104Y-88996666D01*
X108559104Y-88996666D02*
X108701961Y-88949047D01*
X108701961Y-88949047D02*
X108797200Y-88853809D01*
X108797200Y-88853809D02*
X108844819Y-88710952D01*
X108844819Y-88710952D02*
X108844819Y-88615714D01*
X107844819Y-89377619D02*
X107844819Y-90044285D01*
X107844819Y-90044285D02*
X108844819Y-89615714D01*
D11*
X86930000Y-65715000D02*
X92930000Y-65715000D01*
X86930000Y-70825000D02*
X86930000Y-65715000D01*
X88530000Y-70015000D02*
X88530000Y-70825000D01*
X88530000Y-70015000D02*
X91290000Y-70015000D01*
X88530000Y-70825000D02*
X86930000Y-70825000D01*
X89420000Y-70905000D02*
X89420000Y-70015000D01*
X90450000Y-70015000D02*
X90450000Y-70905000D01*
X90450000Y-70905000D02*
X89420000Y-70905000D01*
X91290000Y-70825000D02*
X91290000Y-70015000D01*
X92930000Y-65715000D02*
X92930000Y-70825000D01*
X92930000Y-70825000D02*
X91290000Y-70825000D01*
X101390000Y-84230000D02*
X101390000Y-86030000D01*
X101390000Y-86030000D02*
X102290000Y-86030000D01*
X101490000Y-86530000D02*
X101490000Y-92130000D01*
X101490000Y-92130000D02*
X102390000Y-92130000D01*
X101490000Y-92630000D02*
X101490000Y-94330000D01*
X101490000Y-94330000D02*
X106590000Y-94330000D01*
X102290000Y-86030000D02*
X102290000Y-86530000D01*
X102290000Y-86530000D02*
X101490000Y-86530000D01*
X102390000Y-92130000D02*
X102390000Y-92630000D01*
X102390000Y-92630000D02*
X101490000Y-92630000D01*
X106590000Y-84230000D02*
X101390000Y-84230000D01*
X106590000Y-94330000D02*
X106590000Y-84230000D01*
M02*
