M48
; DRILL file {KiCad 9.0.4} date 2025-10-21T10:02:56+0800
; FORMAT={-:-/ absolute / inch / decimal}
; #@! TF.CreationDate,2025-10-21T10:02:56+08:00
; #@! TF.GenerationSoftware,Kicad,Pcbnew,9.0.4
; #@! TF.FileFunction,MixedPlating,1,2
FMAT,2
INCH
; #@! TA.AperFunction,Plated,PTH,ComponentDrill
T1C0.0276
; #@! TA.AperFunction,Plated,PTH,ComponentDrill
T2C0.0335
; #@! TA.AperFunction,Plated,PTH,ComponentDrill
T3C0.0394
; #@! TA.AperFunction,Plated,PTH,ComponentDrill
T4C0.0531
; #@! TA.AperFunction,Plated,PTH,ComponentDrill
T5C0.0693
; #@! TA.AperFunction,NonPlated,NPTH,ComponentDrill
T6C0.0945
; #@! TA.AperFunction,NonPlated,NPTH,ComponentDrill
T7C0.1122
; #@! TA.AperFunction,NonPlated,NPTH,ComponentDrill
T8C0.1197
; #@! TA.AperFunction,NonPlated,NPTH,ComponentDrill
T9C0.1260
%
G90
G05
T1
X3.5012Y-2.6719
X3.5799Y-2.6719
T2
X4.1098Y-3.3988
X4.1098Y-3.4776
X4.1098Y-3.5563
X4.1098Y-3.635
T3
X2.315Y-3.1311
X2.315Y-3.7311
X2.415Y-3.1311
X2.415Y-3.7311
X2.515Y-3.1311
X2.515Y-3.7311
X2.615Y-3.1311
X2.615Y-3.7311
X2.715Y-3.1311
X2.715Y-3.7311
X2.815Y-3.1311
X2.815Y-3.7311
X2.915Y-3.1311
X2.915Y-3.7311
X3.015Y-3.1311
X3.015Y-3.7311
X3.115Y-3.1311
X3.115Y-3.7311
X3.215Y-3.1311
X3.215Y-3.7311
X3.315Y-3.1311
X3.315Y-3.7311
X3.415Y-3.1311
X3.415Y-3.7311
X3.515Y-3.1311
X3.515Y-3.7311
X3.615Y-3.1311
X3.615Y-3.7311
X3.715Y-3.1311
X3.715Y-3.7311
X5.274Y-4.0394
X5.274Y-4.1394
X5.374Y-4.0394
X5.374Y-4.1394
X5.474Y-4.0394
X5.474Y-4.1394
X5.574Y-4.0394
X5.574Y-4.1394
X5.674Y-4.0394
X5.674Y-4.1394
T4
X2.8454Y-2.2206
X2.8454Y-2.3599
X2.9151Y-2.2902
X2.9848Y-2.2206
X2.9848Y-2.3599
X4.1144Y-2.2196
X4.1144Y-2.3589
X4.1841Y-2.2893
X4.2537Y-2.2196
X4.2537Y-2.3589
T5
X5.6039Y-2.5452
X5.6039Y-2.7952
X5.7791Y-2.5452
X5.7791Y-2.7952
T6
X2.6199Y-2.2902
X3.2104Y-2.2902
X3.8888Y-2.2893
X4.4793Y-2.2893
T7
X2.6199Y-2.1328
X3.2104Y-2.1328
X3.8888Y-2.1318
X4.4793Y-2.1318
T8
X5.351Y-2.755
X5.6915Y-2.305
X6.0321Y-2.755
T9
X1.9803Y-2.1299
X1.9803Y-4.7146
X4.9882Y-4.5482
X4.9911Y-3.628
X6.5276Y-4.5463
X6.5364Y-3.623
X6.9488Y-2.126
X6.9488Y-4.7106
M30
